<svg width="259" height="216" viewBox="0 0 259 216" fill="none" xmlns="http://www.w3.org/2000/svg">
<path d="M37.9268 195.271C88.4989 221.689 170.486 221.695 221.058 195.271C271.63 168.848 271.624 126.019 221.058 99.6014C170.492 73.1837 88.4989 73.1837 37.9268 99.6014C-12.6453 126.019 -12.6392 168.86 37.9268 195.271Z" fill="#F0F0F0"/>
<path d="M231.798 143.541C231.798 143.541 232.432 140.354 237.574 137.892C242.577 135.477 245.462 136.039 248.897 134.657C252.331 133.274 249.862 126.78 240.447 129.665C231.822 132.309 230.947 139.775 230.947 139.775L231.798 143.541Z" fill="#BA68C8"/>
<path opacity="0.2" d="M231.798 143.541C231.798 143.541 232.432 140.354 237.574 137.892C242.577 135.477 245.462 136.039 248.897 134.657C252.331 133.274 249.862 126.78 240.447 129.665C231.822 132.309 230.947 139.775 230.947 139.775L231.798 143.541Z" fill="black"/>
<path d="M230.887 142.346C230.853 142.352 230.819 142.352 230.785 142.346C230.743 142.332 230.705 142.31 230.673 142.281C230.64 142.252 230.613 142.217 230.594 142.178C230.575 142.138 230.564 142.096 230.562 142.052C230.559 142.009 230.565 141.965 230.579 141.924C231.786 138.472 234.804 135.285 238.739 133.341C243.785 130.873 247.376 131.657 247.527 131.694C247.612 131.713 247.686 131.765 247.732 131.838C247.779 131.912 247.794 132.001 247.775 132.086C247.756 132.171 247.703 132.244 247.63 132.291C247.556 132.337 247.467 132.353 247.382 132.333C247.346 132.333 243.852 131.573 239.029 133.933C235.257 135.78 232.33 138.846 231.183 142.141C231.158 142.2 231.117 142.25 231.065 142.286C231.012 142.323 230.951 142.343 230.887 142.346Z" fill="#FAFAFA"/>
<path d="M231.048 139.57C231.048 139.57 231.652 137.759 233.976 134.216C237.983 128.072 244.52 125.386 247.381 121.873C250.459 118.083 245.135 115.741 240.349 117.045C237.609 117.805 235.11 120.304 233.801 121.988C231.026 125.65 229.436 130.072 229.244 134.663L231.048 139.57Z" fill="#BA68C8"/>
<path d="M230.152 139.715C230.065 139.711 229.983 139.674 229.923 139.611C229.864 139.548 229.831 139.464 229.833 139.377C230.112 135.39 231.247 131.509 233.158 127.999C236.78 121.499 242.151 119.188 242.381 119.091C242.457 119.073 242.537 119.083 242.607 119.118C242.677 119.154 242.732 119.213 242.762 119.286C242.793 119.358 242.797 119.439 242.773 119.514C242.75 119.588 242.7 119.653 242.634 119.695C238.853 121.587 235.746 124.596 233.732 128.313C231.869 131.73 230.764 135.507 230.49 139.389C230.49 139.432 230.48 139.475 230.463 139.515C230.445 139.555 230.42 139.591 230.389 139.622C230.358 139.652 230.321 139.676 230.28 139.692C230.239 139.708 230.196 139.715 230.152 139.715Z" fill="#FAFAFA"/>
<path d="M54.6545 145.001C50.3149 142.086 50.1218 134.24 50.7495 129.309C51.7453 121.463 47.7317 119.652 45.6856 123.116C44.6958 124.8 43.4524 128.458 43.5912 132.719C43.8146 139.394 46.7056 147.379 53.7069 150.277L54.6545 145.001Z" fill="#BA68C8"/>
<path opacity="0.2" d="M54.6545 145.001C50.3149 142.086 50.1218 134.24 50.7495 129.309C51.7453 121.463 47.7317 119.652 45.6856 123.116C44.6958 124.8 43.4524 128.458 43.5912 132.719C43.8146 139.394 46.7056 147.379 53.7069 150.277L54.6545 145.001Z" fill="black"/>
<path d="M53.7654 149.83C53.6944 149.83 53.6258 149.804 53.5722 149.758C46.2269 143.475 45.0741 132.254 47.1142 124.475C47.1241 124.435 47.1417 124.398 47.166 124.365C47.1903 124.332 47.2209 124.304 47.2559 124.283C47.2909 124.262 47.3297 124.248 47.3702 124.242C47.4106 124.236 47.4518 124.238 47.4914 124.248C47.531 124.258 47.5683 124.276 47.6011 124.3C47.6339 124.324 47.6617 124.355 47.6827 124.39C47.7037 124.425 47.7176 124.464 47.7236 124.504C47.7296 124.545 47.7276 124.586 47.7177 124.625C45.726 132.224 46.8305 143.185 53.9827 149.299C54.0128 149.324 54.0376 149.356 54.0555 149.391C54.0734 149.426 54.084 149.464 54.0868 149.504C54.0896 149.543 54.0845 149.583 54.0718 149.62C54.0591 149.658 54.0391 149.692 54.0128 149.721C53.9835 149.758 53.9457 149.787 53.9025 149.806C53.8594 149.825 53.8123 149.833 53.7654 149.83Z" fill="#FAFAFA"/>
<path d="M61.1743 159.487C57.396 162.203 48.7108 164.551 45.8861 159.898C43.2607 155.57 45.017 153.681 39.6876 154.429C34.3582 155.178 33.1329 151.037 34.3944 147.537C35.6558 144.036 30.4049 138.972 34.2375 135.025C38.0701 131.078 40.273 139.286 42.4941 140.173C44.7152 141.061 46.0732 139.147 48.6323 140.542C51.1914 141.936 51.4389 147.639 53.9316 147.748C58.0116 147.935 64.8801 147.905 65.3992 151.544C65.9182 155.184 61.1743 159.487 61.1743 159.487Z" fill="#BA68C8"/>
<path d="M62.7373 157.894H62.7071C42.9406 155.83 35.2935 138.58 34.8227 136.069C34.8156 136.03 34.8163 135.989 34.8249 135.95C34.8335 135.91 34.8497 135.873 34.8727 135.84C34.8957 135.807 34.9249 135.779 34.9588 135.757C34.9927 135.735 35.0305 135.72 35.0702 135.713C35.1098 135.706 35.1505 135.707 35.1898 135.715C35.2291 135.724 35.2664 135.74 35.2995 135.763C35.3325 135.786 35.3608 135.815 35.3825 135.849C35.4043 135.883 35.4191 135.921 35.4263 135.96C35.885 138.429 43.3751 155.274 62.7796 157.296C62.8193 157.3 62.8578 157.312 62.893 157.33C62.9282 157.349 62.9593 157.375 62.9846 157.406C63.0098 157.436 63.0287 157.472 63.0402 157.51C63.0516 157.548 63.0553 157.589 63.0512 157.628C63.0408 157.703 63.003 157.772 62.9451 157.821C62.8871 157.87 62.8131 157.896 62.7373 157.894Z" fill="#FAFAFA"/>
<path d="M41.1162 150.168C39.8687 150.168 38.6234 150.067 37.3922 149.866C37.3139 149.852 37.2446 149.807 37.1993 149.741C37.1541 149.676 37.1367 149.595 37.1508 149.516C37.1573 149.477 37.1716 149.44 37.1929 149.406C37.2141 149.373 37.2419 149.344 37.2746 149.321C37.3073 149.299 37.3441 149.283 37.383 149.275C37.4219 149.267 37.4619 149.267 37.5008 149.275C39.755 149.646 42.0548 149.646 44.309 149.275C44.3882 149.259 44.4705 149.274 44.5383 149.319C44.606 149.363 44.6537 149.431 44.6711 149.51C44.6791 149.549 44.6793 149.589 44.6717 149.628C44.6642 149.667 44.6491 149.704 44.6272 149.737C44.6053 149.77 44.5772 149.799 44.5443 149.821C44.5115 149.843 44.4746 149.859 44.4357 149.866C43.3425 150.081 42.2301 150.182 41.1162 150.168Z" fill="#FAFAFA"/>
<path d="M47.0253 151.973H46.9589C46.8815 151.955 46.8141 151.908 46.7712 151.842C46.7283 151.775 46.7133 151.694 46.7295 151.617C47.3391 148.929 47.4841 146.157 47.158 143.42C47.1452 143.34 47.1647 143.258 47.2123 143.193C47.2598 143.127 47.3315 143.083 47.4115 143.07C47.4916 143.057 47.5734 143.077 47.6391 143.124C47.7047 143.172 47.7488 143.244 47.7616 143.324C48.1114 146.144 47.9643 149.004 47.327 151.774C47.305 151.835 47.2637 151.887 47.2093 151.923C47.1549 151.959 47.0903 151.977 47.0253 151.973Z" fill="#FAFAFA"/>
<path d="M10.0299 128.355L19.5058 122.887C19.9618 122.658 20.4651 122.538 20.9755 122.538C21.4859 122.538 21.9892 122.658 22.4452 122.887L23.6523 123.581C24.0813 123.859 24.4383 124.235 24.6943 124.678C24.9502 125.12 25.0978 125.617 25.125 126.128V137.065C25.0969 137.575 24.9489 138.072 24.693 138.514C24.4371 138.957 24.0806 139.333 23.6523 139.612L14.1824 145.08C13.7265 145.309 13.2232 145.429 12.7128 145.429C12.2024 145.429 11.6991 145.309 11.2431 145.08L10.036 144.386C9.60812 144.107 9.25224 143.731 8.99736 143.288C8.74248 142.845 8.59582 142.349 8.56934 141.839V130.902C8.59657 130.393 8.74291 129.897 8.99659 129.455C9.25027 129.013 9.60421 128.636 10.0299 128.355Z" fill="#BA68C8"/>
<path opacity="0.5" d="M10.0299 128.355L19.5058 122.887C19.9618 122.658 20.4651 122.538 20.9755 122.538C21.4859 122.538 21.9892 122.658 22.4452 122.887L23.6523 123.581C24.0813 123.859 24.4383 124.235 24.6943 124.678C24.9502 125.12 25.0978 125.617 25.125 126.128V137.065C25.0969 137.575 24.9489 138.072 24.693 138.514C24.4371 138.957 24.0806 139.333 23.6523 139.612L14.1824 145.08C13.7265 145.309 13.2232 145.429 12.7128 145.429C12.2024 145.429 11.6991 145.309 11.2431 145.08L10.036 144.386C9.60812 144.107 9.25224 143.731 8.99736 143.288C8.74248 142.845 8.59582 142.349 8.56934 141.839V130.902C8.59657 130.393 8.74291 129.897 8.99659 129.455C9.25027 129.013 9.60421 128.636 10.0299 128.355Z" fill="#FAFAFA"/>
<path d="M25.1154 126.128C25.1154 125.187 24.4575 124.807 23.6427 125.277L14.1729 130.746C13.7446 131.025 13.388 131.401 13.1322 131.843C12.8763 132.286 12.7283 132.782 12.7002 133.293V144.229C12.7002 145.165 13.3581 145.545 14.1729 145.08L23.6427 139.612C24.071 139.333 24.4276 138.957 24.6834 138.514C24.9393 138.072 25.0873 137.575 25.1154 137.065V126.128Z" fill="#BA68C8"/>
<path d="M8.56348 141.839C8.58809 142.351 8.73386 142.85 8.98882 143.295C9.24379 143.74 9.60066 144.118 10.0301 144.398L11.2372 145.092C11.6514 145.3 12.1049 145.417 12.5679 145.437C13.0308 145.457 13.4927 145.378 13.9231 145.206C13.229 145.472 12.716 145.08 12.716 144.241V133.292C12.732 132.78 12.8818 132.28 13.1505 131.844L9.01011 129.429C8.74678 129.868 8.59931 130.367 8.58158 130.878L8.56348 141.839Z" fill="#BA68C8"/>
<path opacity="0.1" d="M8.56348 141.839C8.58809 142.351 8.73386 142.85 8.98882 143.295C9.24379 143.74 9.60066 144.118 10.0301 144.398L11.2372 145.092C11.6514 145.3 12.1049 145.417 12.5679 145.437C13.0308 145.457 13.4927 145.378 13.9231 145.206C13.229 145.472 12.716 145.08 12.716 144.241V133.292C12.732 132.78 12.8818 132.28 13.1505 131.844L9.01011 129.429C8.74678 129.868 8.59931 130.367 8.58158 130.878L8.56348 141.839Z" fill="black"/>
<path d="M14.8894 134.041L22.9469 129.376C23.1582 129.249 23.3332 129.376 23.3332 129.599V135.031C23.3262 135.167 23.2877 135.299 23.2207 135.418C23.1536 135.536 23.0599 135.637 22.9469 135.713L14.8894 140.415C14.6721 140.542 14.4971 140.415 14.4971 140.186V134.754C14.5 134.612 14.5372 134.473 14.6055 134.349C14.6738 134.225 14.7712 134.119 14.8894 134.041Z" fill="#FAFAFA"/>
<path d="M14.4971 134.27L19.3074 135.833L23.3332 129.146L19.4402 136.395L14.4971 134.27Z" fill="#E0E0E0"/>
<path d="M10.0301 100.754L19.506 95.286C19.9611 95.0539 20.4648 94.9329 20.9757 94.9329C21.4866 94.9329 21.9902 95.0539 22.4453 95.286L23.6525 95.9801C24.0795 96.2593 24.4345 96.6357 24.6884 97.0783C24.9422 97.521 25.0877 98.0174 25.1131 98.5271V109.464C25.0859 109.973 24.9383 110.469 24.6823 110.911C24.4263 111.353 24.0693 111.728 23.6404 112.005L14.1705 117.473C13.7154 117.705 13.2118 117.826 12.7009 117.826C12.19 117.826 11.6863 117.705 11.2312 117.473L10.0241 116.785C9.59596 116.502 9.24054 116.123 8.98674 115.677C8.73294 115.231 8.58792 114.732 8.56348 114.22V103.301C8.59138 102.791 8.73865 102.295 8.9934 101.853C9.24815 101.411 9.60326 101.034 10.0301 100.754Z" fill="#BA68C8"/>
<path opacity="0.5" d="M10.0301 100.754L19.506 95.286C19.9611 95.0539 20.4648 94.9329 20.9757 94.9329C21.4866 94.9329 21.9902 95.0539 22.4453 95.286L23.6525 95.9801C24.0795 96.2593 24.4345 96.6357 24.6884 97.0783C24.9422 97.521 25.0877 98.0174 25.1131 98.5271V109.464C25.0859 109.973 24.9383 110.469 24.6823 110.911C24.4263 111.353 24.0693 111.728 23.6404 112.005L14.1705 117.473C13.7154 117.705 13.2118 117.826 12.7009 117.826C12.19 117.826 11.6863 117.705 11.2312 117.473L10.0241 116.785C9.59596 116.502 9.24054 116.123 8.98674 115.677C8.73294 115.231 8.58792 114.732 8.56348 114.22V103.301C8.59138 102.791 8.73865 102.295 8.9934 101.853C9.24815 101.411 9.60326 101.034 10.0301 100.754Z" fill="#FAFAFA"/>
<path d="M25.1154 98.5275C25.1154 97.586 24.4575 97.2057 23.6427 97.6765L14.1729 103.145C13.7439 103.423 13.3868 103.799 13.1309 104.242C12.8749 104.684 12.7273 105.181 12.7002 105.692V116.634C12.7002 117.57 13.3581 117.95 14.1729 117.479L23.6427 112.011C24.0716 111.734 24.4287 111.359 24.6847 110.918C24.9406 110.476 25.0883 109.98 25.1154 109.47V98.5275Z" fill="#BA68C8"/>
<path d="M8.56348 114.22C8.59138 114.73 8.73865 115.226 8.9934 115.668C9.24815 116.11 9.60326 116.487 10.0301 116.767L11.2372 117.455C11.6505 117.665 12.1039 117.785 12.5671 117.806C13.0303 117.826 13.4927 117.748 13.9231 117.576C13.229 117.835 12.716 117.449 12.716 116.61V105.691C12.732 105.179 12.8818 104.68 13.1505 104.243L9.01011 101.829C8.74678 102.267 8.59931 102.766 8.58158 103.277L8.56348 114.22Z" fill="#BA68C8"/>
<path opacity="0.1" d="M8.56348 114.22C8.59138 114.73 8.73865 115.226 8.9934 115.668C9.24815 116.11 9.60326 116.487 10.0301 116.767L11.2372 117.455C11.6505 117.665 12.1039 117.785 12.5671 117.806C13.0303 117.826 13.4927 117.748 13.9231 117.576C13.229 117.835 12.716 117.449 12.716 116.61V105.691C12.732 105.179 12.8818 104.68 13.1505 104.243L9.01011 101.829C8.74678 102.267 8.59931 102.766 8.58158 103.277L8.56348 114.22Z" fill="black"/>
<path d="M18.8107 111.806L17.833 111.697C16.5052 111.588 14.9238 111.093 14.9238 109.168C14.9621 108.469 15.1645 107.789 15.5148 107.183C15.865 106.577 16.3532 106.062 16.9397 105.679C17.8088 105.178 18.5452 105.384 18.8289 106.108C19.1148 105.034 19.7876 104.103 20.718 103.495C21.8346 102.855 22.7339 103.374 22.7339 104.659C22.7339 106.518 21.1646 108.884 19.8428 110.52L18.8107 111.806Z" fill="#FAFAFA"/>
<path d="M10.0299 73.178L19.5058 67.7097C19.961 67.4776 20.4646 67.3566 20.9755 67.3566C21.4864 67.3566 21.99 67.4776 22.4452 67.7097L23.6523 68.4038C24.0811 68.6808 24.4382 69.0555 24.6942 69.4972C24.9502 69.9389 25.0978 70.435 25.125 70.9448V81.8813C25.0983 82.392 24.9509 82.8891 24.6949 83.3319C24.4389 83.7746 24.0816 84.1504 23.6523 84.4283L14.1824 89.8965C13.7273 90.1286 13.2237 90.2496 12.7128 90.2496C12.2019 90.2496 11.6982 90.1286 11.2431 89.8965L10.036 89.2084C9.60912 88.9284 9.25401 88.5521 8.99926 88.1097C8.7445 87.6672 8.59724 87.1712 8.56934 86.6614V75.7069C8.59934 75.2008 8.74698 74.7087 9.00054 74.2697C9.2541 73.8306 9.60657 73.4568 10.0299 73.178Z" fill="#BA68C8"/>
<path opacity="0.5" d="M10.0299 73.178L19.5058 67.7097C19.961 67.4776 20.4646 67.3566 20.9755 67.3566C21.4864 67.3566 21.99 67.4776 22.4452 67.7097L23.6523 68.4038C24.0811 68.6808 24.4382 69.0555 24.6942 69.4972C24.9502 69.9389 25.0978 70.435 25.125 70.9448V81.8813C25.0983 82.392 24.9509 82.8891 24.6949 83.3319C24.4389 83.7746 24.0816 84.1504 23.6523 84.4283L14.1824 89.8965C13.7273 90.1286 13.2237 90.2496 12.7128 90.2496C12.2019 90.2496 11.6982 90.1286 11.2431 89.8965L10.036 89.2084C9.60912 88.9284 9.25401 88.5521 8.99926 88.1097C8.7445 87.6672 8.59724 87.1712 8.56934 86.6614V75.7069C8.59934 75.2008 8.74698 74.7087 9.00054 74.2697C9.2541 73.8306 9.60657 73.4568 10.0299 73.178Z" fill="#FAFAFA"/>
<path d="M14.1729 89.8788C13.3581 90.3495 12.7002 89.9693 12.7002 89.0338V78.0973C12.7269 77.5866 12.8742 77.0894 13.1302 76.6467C13.3862 76.2039 13.7436 75.8282 14.1729 75.5503L23.6427 70.082C24.4575 69.6112 25.1154 69.9915 25.1154 70.927V81.8635C25.0887 82.3742 24.9413 82.8714 24.6853 83.3141C24.4294 83.7569 24.072 84.1326 23.6427 84.4105" fill="#BA68C8"/>
<path d="M8.56348 86.6434C8.59138 87.1532 8.73865 87.6492 8.9934 88.0916C9.24815 88.5341 9.60326 88.9104 10.0301 89.1905L11.2372 89.8785C11.6505 90.0889 12.1039 90.2085 12.5671 90.2293C13.0303 90.2501 13.4927 90.1717 13.9231 89.9992C13.229 90.2588 12.716 89.8725 12.716 89.0335V78.097C12.732 77.5845 12.8818 77.0852 13.1505 76.6485L9.01011 74.2343C8.74678 74.673 8.59931 75.1714 8.58158 75.6828L8.56348 86.6434Z" fill="#BA68C8"/>
<path opacity="0.1" d="M8.56348 86.6434C8.59138 87.1532 8.73865 87.6492 8.9934 88.0916C9.24815 88.5341 9.60326 88.9104 10.0301 89.1905L11.2372 89.8785C11.6505 90.0889 12.1039 90.2085 12.5671 90.2293C13.0303 90.2501 13.4927 90.1717 13.9231 89.9992C13.229 90.2588 12.716 89.8725 12.716 89.0335V78.097C12.732 77.5845 12.8818 77.0852 13.1505 76.6485L9.01011 74.2343C8.74678 74.673 8.59931 75.1714 8.58158 75.6828L8.56348 86.6434Z" fill="black"/>
<path d="M17.1768 79.8173C17.1768 79.8173 18.2813 77.2703 18.3839 76.9021C18.4387 76.2716 18.4387 75.6375 18.3839 75.007C18.3839 74.7655 19.3918 74.0835 19.7177 74.7836C20.0313 75.5284 20.0907 76.3556 19.8867 77.1375L22.3432 75.7071C22.8623 75.4053 23.0735 75.8278 23.0796 76.1658C23.0627 76.5513 22.9232 76.9214 22.6812 77.222C22.6812 77.222 23.1761 77.0772 23.1761 77.735C23.1614 77.9664 23.1004 78.1924 22.9967 78.3998C22.8931 78.6071 22.7488 78.7916 22.5726 78.9422C22.5726 78.9422 22.7295 79.0629 22.7355 79.5457C22.6628 80.0191 22.4177 80.449 22.0475 80.7528C22.129 80.9432 22.1662 81.1496 22.1561 81.3564C22.1257 81.6453 22.0287 81.9233 21.8727 82.1684C21.7166 82.4135 21.5058 82.619 21.2568 82.7687L17.2311 85.1286L17.1768 79.8173Z" fill="#FAFAFA"/>
<path d="M14.8524 87.217L16.6209 86.185L16.5967 80.0287L14.8223 81.0607L14.8524 87.217Z" fill="#FAFAFA"/>
<path d="M4.84903 40.8635L19.3707 32.4801C20.0683 32.126 20.8396 31.9414 21.6219 31.9414C22.4043 31.9414 23.1756 32.126 23.8732 32.4801L25.6839 33.5363C26.3413 33.9633 26.8884 34.5396 27.2807 35.2182C27.673 35.8969 27.8993 36.6586 27.9412 37.4414V54.2082C27.8961 54.9869 27.6682 55.744 27.276 56.4182C26.8839 57.0924 26.3384 57.6648 25.6839 58.0891L11.1985 66.4906C10.4998 66.8448 9.7275 67.0294 8.94418 67.0294C8.16085 67.0294 7.38855 66.8448 6.68988 66.4906L4.87921 65.4344C4.22362 65.006 3.67817 64.4293 3.28704 63.7508C2.89591 63.0724 2.67011 62.3113 2.62793 61.5293V44.7625C2.66671 43.984 2.88794 43.2256 3.27375 42.5483C3.65956 41.871 4.19917 41.2939 4.84903 40.8635Z" fill="#BA68C8"/>
<path opacity="0.1" d="M4.84903 40.8635L19.3707 32.4801C20.0683 32.126 20.8396 31.9414 21.6219 31.9414C22.4043 31.9414 23.1756 32.126 23.8732 32.4801L25.6839 33.5363C26.3413 33.9633 26.8884 34.5396 27.2807 35.2182C27.673 35.8969 27.8993 36.6586 27.9412 37.4414V54.2082C27.8961 54.9869 27.6682 55.744 27.276 56.4182C26.8839 57.0924 26.3384 57.6648 25.6839 58.0891L11.1985 66.4906C10.4998 66.8448 9.7275 67.0294 8.94418 67.0294C8.16085 67.0294 7.38855 66.8448 6.68988 66.4906L4.87921 65.4344C4.22362 65.006 3.67817 64.4293 3.28704 63.7508C2.89591 63.0724 2.67011 62.3113 2.62793 61.5293V44.7625C2.66671 43.984 2.88794 43.2256 3.27375 42.5483C3.65956 41.871 4.19917 41.2939 4.84903 40.8635Z" fill="black"/>
<path d="M27.9563 37.3388C27.9563 36.4998 27.5459 34.4115 25.3912 35.7333C23.2365 37.0551 12.6501 43.0364 11.1895 43.9055C10.1759 44.4616 9.37563 45.3383 8.91406 46.3982L10.0669 47.557L27.9563 37.3388Z" fill="#BA68C8"/>
<path opacity="0.2" d="M27.9563 37.3388C27.9563 36.4998 27.5459 34.4115 25.3912 35.7333C23.2365 37.0551 12.6501 43.0364 11.1895 43.9055C10.1759 44.4616 9.37563 45.3383 8.91406 46.3982L10.0669 47.557L27.9563 37.3388Z" fill="black"/>
<path d="M11.1899 66.4903C9.94056 67.2085 8.93262 66.6291 8.93262 65.1926V48.4318C8.97358 47.648 9.19946 46.8851 9.59179 46.2053C9.98412 45.5255 10.5318 44.9483 11.1899 44.5207L25.6754 36.1373C26.9247 35.4191 27.9327 36.0045 27.9327 37.441V54.2079C27.8875 54.9865 27.6597 55.7436 27.2675 56.4179C26.8753 57.0921 26.3299 57.6645 25.6754 58.0887" fill="#BA68C8"/>
<path opacity="0.1" d="M11.1899 66.4903C9.94056 67.2085 8.93262 66.6291 8.93262 65.1926V48.4318C8.97358 47.648 9.19946 46.8851 9.59179 46.2053C9.98412 45.5255 10.5318 44.9483 11.1899 44.5207L25.6754 36.1373C26.9247 35.4191 27.9327 36.0045 27.9327 37.441V54.2079C27.8875 54.9865 27.6597 55.7436 27.2675 56.4179C26.8753 57.0921 26.3299 57.6645 25.6754 58.0887" fill="black"/>
<path d="M2.59641 61.529C2.63858 62.3109 2.86438 63.072 3.25551 63.7504C3.64664 64.4289 4.1921 65.0056 4.84768 65.434L6.65836 66.4902C7.29357 66.8103 7.98947 66.9919 8.70008 67.0231C9.41069 67.0543 10.1198 66.9344 10.7807 66.6713C9.7184 67.0757 8.90963 66.4781 8.90963 65.1926V48.4317C8.93712 47.6467 9.16573 46.8819 9.57355 46.2106L3.23014 42.547C2.82394 43.2187 2.59739 43.9836 2.57227 44.7681L2.59641 61.529Z" fill="#BA68C8"/>
<path opacity="0.2" d="M2.59641 61.529C2.63858 62.3109 2.86438 63.072 3.25551 63.7504C3.64664 64.4289 4.1921 65.0056 4.84768 65.434L6.65836 66.4902C7.29357 66.8103 7.98947 66.9919 8.70008 67.0231C9.41069 67.0543 10.1198 66.9344 10.7807 66.6713C9.7184 67.0757 8.90963 66.4781 8.90963 65.1926V48.4317C8.93712 47.6467 9.16573 46.8819 9.57355 46.2106L3.23014 42.547C2.82394 43.2187 2.59739 43.9836 2.57227 44.7681L2.59641 61.529Z" fill="black"/>
<path d="M18.8812 42.5656L20.7643 45.8852L24.9892 44.159C25.3875 43.9961 25.5505 44.4668 25.2608 44.9618L22.2128 50.1524L22.931 54.5825C22.9974 55.005 22.581 55.5904 22.2249 55.5844L18.4345 55.4697L14.6623 59.9361C14.3062 60.3586 13.8897 60.2499 13.9561 59.749L14.6864 54.4678L11.6686 52.796C11.3789 52.639 11.5419 51.9812 11.9402 51.6854L16.1652 48.5469L18.0483 43.0485C18.1871 42.5475 18.7001 42.2518 18.8812 42.5656Z" fill="#FAFAFA"/>
<path d="M223.042 119.157C215.799 122.603 204.09 122.603 196.859 119.157C189.629 115.711 189.616 110.104 196.859 106.681C204.102 103.259 215.811 103.235 223.042 106.681C230.272 110.128 230.248 115.711 223.042 119.157Z" fill="#E0E0E0"/>
<path d="M58.3887 159.168C58.4532 160.045 58.7233 160.895 59.1774 161.649C59.6314 162.403 60.2565 163.04 61.0021 163.507L134.232 205.756C135.042 206.167 135.937 206.381 136.845 206.381C137.753 206.381 138.649 206.167 139.459 205.756L239.649 147.905C240.439 147.488 241.1 146.864 241.561 146.099C242.022 145.335 242.266 144.459 242.266 143.566C242.266 142.673 242.022 141.797 241.561 141.032C241.1 140.267 240.439 139.643 239.649 139.226L166.426 96.9769C165.616 96.566 164.72 96.3519 163.812 96.3519C162.904 96.3519 162.009 96.566 161.199 96.9769L61.0081 154.828C60.2614 155.295 59.6351 155.931 59.18 156.685C58.7249 157.439 58.4538 158.289 58.3887 159.168Z" fill="#37474F"/>
<path d="M88.6029 138.894L61.0023 154.828C60.2126 155.244 59.5515 155.869 59.0905 156.633C58.6294 157.398 58.3857 158.274 58.3857 159.167C58.3857 160.06 58.6294 160.936 59.0905 161.701C59.5515 162.466 60.2126 163.09 61.0023 163.507L134.232 205.756C135.037 206.176 135.937 206.384 136.845 206.359V138.894H88.6029Z" fill="#263238"/>
<path d="M55.9436 154.918C55.215 154.425 54.6132 153.766 54.1874 152.996C53.7615 152.227 53.5237 151.367 53.4932 150.488V63.0985C53.5413 62.1914 53.8031 61.3085 54.2573 60.5219C54.7114 59.7352 55.3451 59.067 56.1066 58.5718L156.297 0.750985C157.054 0.276616 157.925 0.0172776 158.817 0.000833734C159.71 -0.0156101 160.59 0.211465 161.363 0.657655C162.137 1.10385 162.774 1.75229 163.206 2.53331C163.639 3.31433 163.85 4.19842 163.818 5.09057V92.4495C163.769 93.3565 163.507 94.2392 163.053 95.0257C162.599 95.8123 161.965 96.4806 161.204 96.9762L61.0135 154.827C60.2353 155.24 59.3704 155.464 58.4894 155.48C57.6084 155.495 56.7361 155.303 55.9436 154.918Z" fill="#455A64"/>
<path d="M65.7527 67.1422L54.285 60.503C53.8166 61.2813 53.5548 62.1663 53.5246 63.0742V150.488C53.493 151.379 53.7047 152.262 54.1368 153.042C54.5689 153.822 55.2052 154.47 55.9775 154.916C56.7497 155.362 57.6288 155.589 58.5205 155.574C59.4121 155.558 60.2827 155.3 61.0389 154.827L72.4643 148.23L65.7527 67.1422Z" fill="#263238"/>
<path d="M58.3887 65.9354V153.319C58.3887 154.985 59.5596 155.66 61.0021 154.828L161.193 96.9764C161.954 96.4808 162.587 95.8126 163.042 95.026C163.496 94.2394 163.758 93.3567 163.806 92.4497V5.06642C163.806 3.4006 162.635 2.72461 161.193 3.55753L61.0021 61.4026C60.2411 61.8999 59.608 62.5694 59.154 63.3569C58.7 64.1443 58.4378 65.0277 58.3887 65.9354Z" fill="#37474F"/>
<path d="M61.002 157.846L134.232 200.125C135.042 200.536 135.937 200.75 136.845 200.75C137.753 200.75 138.649 200.536 139.459 200.125L239.649 142.274C241.098 141.441 241.098 140.089 239.649 139.256L166.426 96.9769C165.616 96.566 164.72 96.3519 163.812 96.3519C162.904 96.3519 162.009 96.566 161.199 96.9769L61.0081 154.828C59.5595 155.661 59.5595 157.013 61.002 157.846Z" fill="#455A64"/>
<path d="M62.4062 66.2552L159.79 10.0338C160.653 9.53282 161.36 9.9372 161.36 10.9391V86.5831C161.329 87.1271 161.171 87.6563 160.899 88.1281C160.626 88.5999 160.246 89.001 159.79 89.2991L62.4062 145.521C61.537 146.022 60.8369 145.617 60.8369 144.615V68.9531C60.8687 68.4119 61.0273 67.8857 61.2999 67.4171C61.5725 66.9485 61.9514 66.5505 62.4062 66.2552Z" fill="#FAFAFA"/>
<path d="M69.4988 155.582L162.501 101.865C162.906 101.66 163.354 101.553 163.808 101.553C164.262 101.553 164.71 101.66 165.115 101.865L169.877 104.611C170.034 104.665 170.171 104.766 170.268 104.902C170.365 105.037 170.417 105.199 170.417 105.366C170.417 105.532 170.365 105.695 170.268 105.83C170.171 105.965 170.034 106.067 169.877 106.12L76.8562 159.831C76.4512 160.036 76.0035 160.143 75.5495 160.143C75.0955 160.143 74.6478 160.036 74.2428 159.831L69.4988 157.073C69.3473 157.016 69.2169 156.914 69.1248 156.781C69.0327 156.647 68.9834 156.489 68.9834 156.327C68.9834 156.166 69.0327 156.007 69.1248 155.874C69.2169 155.741 69.3473 155.639 69.4988 155.582Z" fill="#263238"/>
<path d="M81.7607 162.662L174.763 108.945C175.168 108.74 175.616 108.633 176.07 108.633C176.524 108.633 176.972 108.74 177.377 108.945L206.637 125.845C206.795 125.898 206.932 126 207.029 126.135C207.126 126.27 207.178 126.433 207.178 126.599C207.178 126.766 207.126 126.928 207.029 127.063C206.932 127.198 206.795 127.3 206.637 127.353L113.743 180.986C113.337 181.191 112.889 181.298 112.434 181.298C111.979 181.298 111.53 181.191 111.124 180.986L81.7667 164.159C81.6103 164.106 81.4742 164.006 81.3776 163.872C81.281 163.738 81.2287 163.577 81.228 163.412C81.2274 163.247 81.2784 163.086 81.3739 162.952C81.4694 162.817 81.6047 162.716 81.7607 162.662Z" fill="#263238"/>
<path d="M165.132 133.123L168.048 131.44C168.168 131.367 168.162 131.246 168.048 131.174L164.68 129.231C164.608 129.193 164.528 129.174 164.447 129.174C164.366 129.174 164.287 129.193 164.215 129.231L161.306 130.914C161.179 130.981 161.185 131.102 161.306 131.18L164.674 133.123C164.745 133.16 164.823 133.178 164.903 133.178C164.983 133.178 165.061 133.16 165.132 133.123ZM159.386 126.442L156.477 128.102C156.351 128.174 156.357 128.295 156.477 128.373L159.845 130.317C159.917 130.353 159.997 130.371 160.078 130.371C160.158 130.371 160.238 130.353 160.31 130.317L163.225 128.633C163.346 128.561 163.34 128.44 163.225 128.367L159.857 126.418C159.782 126.385 159.701 126.37 159.619 126.374C159.537 126.378 159.458 126.402 159.386 126.442ZM149.977 131.874L145.052 134.741C144.925 134.813 144.937 134.934 145.052 135.013L148.42 136.956C148.492 136.992 148.572 137.01 148.652 137.01C148.733 137.01 148.812 136.992 148.885 136.956L153.81 134.113C153.93 134.041 153.924 133.92 153.81 133.848L150.442 131.898C150.371 131.859 150.293 131.836 150.212 131.832C150.132 131.828 150.051 131.842 149.977 131.874ZM155.131 128.899L152.216 130.582C152.096 130.649 152.102 130.77 152.216 130.848L155.584 132.792C155.656 132.829 155.736 132.848 155.816 132.848C155.897 132.848 155.977 132.829 156.049 132.792L158.958 131.108C159.085 131.035 159.079 130.914 158.958 130.842L155.59 128.899C155.519 128.863 155.44 128.844 155.361 128.844C155.281 128.844 155.202 128.863 155.131 128.899ZM143.706 135.495L140.797 137.155C140.67 137.228 140.682 137.348 140.797 137.427L144.165 139.37C144.237 139.407 144.316 139.427 144.397 139.427C144.478 139.427 144.558 139.407 144.629 139.37L147.545 137.692C147.665 137.62 147.659 137.499 147.545 137.427L144.177 135.477C144.102 135.443 144.021 135.427 143.939 135.431C143.858 135.434 143.778 135.456 143.706 135.495ZM139.451 137.952L136.542 139.63C136.415 139.702 136.421 139.823 136.542 139.901L139.91 141.845C139.982 141.881 140.061 141.899 140.142 141.899C140.223 141.899 140.302 141.881 140.374 141.845L143.29 140.161C143.41 140.089 143.404 139.968 143.29 139.895L139.922 137.946C139.848 137.91 139.767 137.892 139.686 137.893C139.604 137.894 139.524 137.914 139.451 137.952ZM152.699 145.859L155.608 144.175C155.729 144.102 155.723 143.982 155.608 143.909L152.222 141.984C152.15 141.947 152.071 141.927 151.99 141.927C151.909 141.927 151.829 141.947 151.758 141.984L148.848 143.668C148.722 143.734 148.734 143.855 148.848 143.933L152.216 145.877C152.292 145.914 152.376 145.932 152.46 145.929C152.544 145.926 152.626 145.902 152.699 145.859ZM148.438 148.315L151.353 146.631C151.474 146.559 151.468 146.444 151.353 146.366L147.967 144.398C147.895 144.361 147.816 144.342 147.735 144.342C147.654 144.342 147.574 144.361 147.502 144.398L144.581 146.094C144.454 146.16 144.467 146.281 144.581 146.36L147.949 148.303C148.023 148.346 148.106 148.37 148.192 148.372C148.277 148.374 148.362 148.354 148.438 148.315ZM144.183 150.772L147.098 149.088C147.219 149.021 147.213 148.9 147.098 148.822L143.73 146.879C143.658 146.842 143.579 146.822 143.498 146.822C143.417 146.822 143.337 146.842 143.265 146.879L140.356 148.55C140.23 148.623 140.236 148.744 140.356 148.816L143.724 150.759C143.794 150.797 143.872 150.818 143.952 150.82C144.032 150.822 144.111 150.806 144.183 150.772ZM139.958 153.228L142.873 151.544C142.994 151.478 142.988 151.357 142.873 151.279L139.505 149.335C139.433 149.298 139.354 149.279 139.273 149.279C139.192 149.279 139.112 149.298 139.041 149.335L136.083 151.037C135.956 151.11 135.962 151.23 136.083 151.303L139.451 153.246C139.526 153.282 139.608 153.3 139.692 153.297C139.775 153.294 139.856 153.27 139.928 153.228H139.958ZM160.877 135.58L163.786 133.896C163.913 133.824 163.907 133.709 163.786 133.63L160.419 131.687C160.347 131.65 160.267 131.631 160.186 131.631C160.105 131.631 160.026 131.65 159.954 131.687L157.045 133.371C156.918 133.443 156.924 133.558 157.045 133.637L160.413 135.58C160.484 135.617 160.564 135.636 160.645 135.636C160.726 135.636 160.805 135.617 160.877 135.58ZM156.954 143.426L163.448 139.672C163.569 139.6 163.563 139.479 163.448 139.407L155.27 134.687C155.198 134.65 155.119 134.63 155.038 134.63C154.957 134.63 154.877 134.65 154.805 134.687L151.45 136.624C151.323 136.697 151.329 136.817 151.45 136.896L155.783 139.394C155.916 139.473 155.922 139.594 155.783 139.66L153.097 141.217C152.977 141.284 152.983 141.404 153.097 141.483L156.465 143.426C156.543 143.462 156.628 143.479 156.713 143.475C156.798 143.47 156.881 143.446 156.954 143.402V143.426ZM135.196 140.408L132.287 142.092C132.16 142.159 132.166 142.279 132.287 142.358L135.655 144.301C135.727 144.337 135.806 144.356 135.887 144.356C135.968 144.356 136.047 144.337 136.119 144.301L139.035 142.617C139.155 142.545 139.149 142.424 139.035 142.352L135.667 140.408C135.594 140.37 135.513 140.35 135.431 140.35C135.349 140.35 135.269 140.37 135.196 140.408ZM130.971 142.865L128.056 144.549C127.935 144.621 127.941 144.736 128.056 144.814L131.424 146.758C131.495 146.795 131.575 146.814 131.656 146.814C131.737 146.814 131.817 146.795 131.888 146.758L134.798 145.074C134.924 145.002 134.918 144.881 134.798 144.808L131.43 142.865C131.355 142.824 131.271 142.802 131.185 142.802C131.1 142.802 131.016 142.824 130.941 142.865H130.971ZM109.702 170.417C109.773 170.454 109.853 170.474 109.934 170.474C110.015 170.474 110.094 170.454 110.166 170.417L113.082 168.733C113.202 168.661 113.196 168.54 113.082 168.468L109.714 166.524C109.642 166.487 109.562 166.468 109.481 166.468C109.4 166.468 109.321 166.487 109.249 166.524L106.34 168.208C106.213 168.281 106.219 168.395 106.34 168.474L109.702 170.417ZM96.9001 162.505L93.9849 164.189C93.8642 164.255 93.8703 164.376 93.9849 164.454L97.3528 166.398C97.4251 166.433 97.5046 166.452 97.5852 166.452C97.6658 166.452 97.7453 166.433 97.8175 166.398L100.727 164.714C100.853 164.641 100.847 164.521 100.727 164.448L97.3588 162.505C97.2878 162.469 97.2092 162.45 97.1295 162.45C97.0498 162.45 96.9712 162.469 96.9001 162.505ZM103.751 168.269C103.822 168.306 103.902 168.325 103.983 168.325C104.064 168.325 104.143 168.306 104.215 168.269L107.124 166.585C107.251 166.512 107.239 166.398 107.124 166.319L103.763 164.376C103.691 164.339 103.611 164.319 103.53 164.319C103.449 164.319 103.37 164.339 103.298 164.376L100.383 166.06C100.262 166.132 100.268 166.247 100.383 166.325L103.751 168.269ZM117.192 171.89L120.107 170.206C120.228 170.134 120.222 170.013 120.107 169.941L116.739 167.991C116.667 167.955 116.587 167.937 116.507 167.937C116.426 167.937 116.347 167.955 116.274 167.991L113.365 169.675C113.238 169.741 113.244 169.862 113.365 169.941L116.733 171.884C116.801 171.924 116.877 171.947 116.956 171.953C117.034 171.958 117.113 171.945 117.186 171.914L117.192 171.89ZM112.472 174.334C112.544 174.372 112.623 174.391 112.704 174.391C112.785 174.391 112.865 174.372 112.937 174.334L115.852 172.651C115.973 172.578 115.967 172.457 115.852 172.385L112.484 170.442C112.412 170.404 112.332 170.385 112.252 170.385C112.171 170.385 112.091 170.404 112.019 170.442L109.086 172.162C108.959 172.228 108.965 172.349 109.086 172.427L112.472 174.334ZM101.125 160.09L98.2099 161.768C98.0891 161.841 98.0952 161.962 98.2099 162.04L101.578 163.983C101.65 164.019 101.729 164.038 101.81 164.038C101.891 164.038 101.97 164.019 102.042 163.983L104.952 162.3C105.078 162.227 105.072 162.106 104.952 162.034L101.614 160.09C101.539 160.051 101.455 160.03 101.369 160.03C101.284 160.03 101.2 160.051 101.125 160.09ZM122.431 147.778L119.515 149.462C119.395 149.534 119.401 149.655 119.515 149.727L122.883 151.671C122.955 151.708 123.035 151.727 123.116 151.727C123.197 151.727 123.276 151.708 123.348 151.671L126.257 149.987C126.384 149.921 126.372 149.8 126.257 149.721L122.895 147.778C122.823 147.742 122.744 147.724 122.663 147.724C122.582 147.724 122.503 147.742 122.431 147.778ZM105.404 157.61L102.495 159.288C102.368 159.36 102.374 159.481 102.495 159.559L105.863 161.503C105.935 161.538 106.015 161.557 106.095 161.557C106.176 161.557 106.255 161.538 106.328 161.503L109.243 159.825C109.364 159.752 109.358 159.632 109.243 159.553L105.875 157.61C105.802 157.573 105.721 157.554 105.64 157.554C105.558 157.554 105.477 157.573 105.404 157.61ZM126.686 145.321L123.771 147.005C123.65 147.078 123.656 147.192 123.771 147.271L127.138 149.214C127.21 149.251 127.29 149.271 127.371 149.271C127.452 149.271 127.531 149.251 127.603 149.214L130.512 147.53C130.639 147.458 130.633 147.343 130.512 147.265L127.144 145.321C127.073 145.285 126.995 145.267 126.915 145.267C126.835 145.267 126.757 145.285 126.686 145.321ZM118.17 150.234L115.26 151.918C115.134 151.991 115.146 152.111 115.26 152.184L118.628 154.133C118.7 154.169 118.78 154.188 118.861 154.188C118.941 154.188 119.021 154.169 119.093 154.133L122.002 152.455C122.129 152.383 122.117 152.262 122.002 152.184L118.628 150.246C118.558 150.21 118.48 150.19 118.4 150.188C118.321 150.186 118.242 150.202 118.17 150.234ZM113.914 152.697L111.005 154.375C110.879 154.447 110.891 154.568 111.005 154.64L114.403 156.59C114.475 156.625 114.553 156.644 114.633 156.644C114.712 156.644 114.791 156.625 114.862 156.59L117.777 154.912C117.898 154.84 117.892 154.719 117.777 154.64L114.403 152.703C114.329 152.661 114.245 152.638 114.16 152.637C114.074 152.636 113.99 152.657 113.914 152.697ZM109.659 155.153L106.75 156.831C106.623 156.904 106.636 157.024 106.75 157.103L110.118 159.046C110.19 159.082 110.27 159.101 110.35 159.101C110.431 159.101 110.511 159.082 110.583 159.046L113.498 157.368C113.619 157.296 113.613 157.175 113.498 157.097L110.13 155.153C110.057 155.117 109.976 155.098 109.895 155.098C109.813 155.098 109.732 155.117 109.659 155.153ZM131.418 158.141L134.321 156.469C134.447 156.397 134.441 156.276 134.321 156.198L130.953 154.254C130.881 154.217 130.801 154.198 130.721 154.198C130.64 154.198 130.56 154.217 130.488 154.254L127.573 155.932C127.452 156.004 127.458 156.125 127.573 156.204L130.941 158.147C131.015 158.184 131.097 158.202 131.18 158.201C131.263 158.2 131.344 158.18 131.418 158.141ZM168.796 121.01L165.881 122.67C165.76 122.736 165.766 122.857 165.881 122.935L169.249 124.879C169.321 124.915 169.4 124.933 169.481 124.933C169.562 124.933 169.641 124.915 169.713 124.879L172.623 123.195C172.749 123.122 172.743 123.002 172.623 122.929L169.255 120.986C169.182 120.954 169.102 120.939 169.022 120.943C168.943 120.947 168.865 120.97 168.796 121.01ZM163.642 123.986L160.732 125.688C160.606 125.76 160.612 125.881 160.732 125.959L164.094 127.903C164.166 127.94 164.246 127.959 164.327 127.959C164.407 127.959 164.487 127.94 164.559 127.903L167.474 126.225C167.595 126.152 167.589 126.032 167.474 125.959L164.106 124.01C164.036 123.97 163.957 123.948 163.877 123.943C163.796 123.939 163.716 123.954 163.642 123.986ZM173.051 118.554L170.136 120.256C170.015 120.328 170.021 120.449 170.136 120.527L173.504 122.471C173.576 122.506 173.655 122.525 173.736 122.525C173.817 122.525 173.896 122.506 173.968 122.471L176.878 120.787C177.004 120.714 176.998 120.594 176.878 120.521L173.51 118.572C173.44 118.534 173.362 118.513 173.282 118.51C173.203 118.507 173.124 118.522 173.051 118.554ZM151.021 141.272L153.936 139.569C154.057 139.497 154.051 139.376 153.936 139.304L150.569 137.36C150.497 137.323 150.417 137.304 150.336 137.304C150.255 137.304 150.176 137.323 150.104 137.36L147.189 139.038C147.068 139.111 147.074 139.231 147.189 139.31L150.556 141.253C150.627 141.292 150.706 141.314 150.787 141.317C150.867 141.32 150.948 141.304 151.021 141.272ZM177.777 116.103C177.705 116.067 177.625 116.049 177.545 116.049C177.464 116.049 177.384 116.067 177.312 116.103L174.403 117.781C174.276 117.853 174.282 117.974 174.403 118.053L177.771 119.996C177.843 120.033 177.922 120.052 178.003 120.052C178.084 120.052 178.164 120.033 178.236 119.996L181.151 118.318C181.271 118.246 181.265 118.125 181.151 118.047L177.777 116.103ZM135.673 155.685L138.582 154.007C138.709 153.934 138.703 153.813 138.582 153.735L135.214 151.792C135.142 151.756 135.062 151.737 134.982 151.737C134.901 151.737 134.822 151.756 134.749 151.792L131.822 153.451C131.701 153.524 131.707 153.644 131.822 153.717L135.19 155.666C135.263 155.708 135.345 155.731 135.429 155.734C135.513 155.737 135.597 155.72 135.673 155.685ZM187.862 125.555L190.778 123.871C190.898 123.798 190.892 123.678 190.778 123.605L187.41 121.662C187.338 121.625 187.258 121.606 187.177 121.606C187.096 121.606 187.017 121.625 186.945 121.662L184.03 123.346C183.909 123.412 183.915 123.533 184.03 123.611L187.398 125.555C187.469 125.592 187.549 125.611 187.63 125.611C187.711 125.611 187.79 125.592 187.862 125.555ZM178.809 125.235L181.718 123.551C181.845 123.479 181.839 123.358 181.718 123.285L178.35 121.342C178.278 121.305 178.199 121.286 178.118 121.286C178.037 121.286 177.957 121.305 177.886 121.342L174.97 123.026C174.85 123.092 174.856 123.213 174.97 123.291L178.338 125.235C178.409 125.271 178.488 125.29 178.568 125.29C178.647 125.29 178.726 125.271 178.797 125.235H178.809ZM182.605 118.879C182.533 118.844 182.454 118.825 182.373 118.825C182.292 118.825 182.213 118.844 182.141 118.879L179.231 120.563C179.105 120.63 179.111 120.751 179.231 120.829L182.599 122.772C182.672 122.808 182.751 122.827 182.832 122.827C182.912 122.827 182.992 122.808 183.064 122.772L185.979 121.089C186.1 121.016 186.094 120.895 185.979 120.823L182.605 118.879ZM183.499 118.366L191.659 123.086C191.731 123.122 191.811 123.14 191.891 123.14C191.972 123.14 192.051 123.122 192.123 123.086L195.039 121.402C195.159 121.33 195.153 121.209 195.039 121.137L186.83 116.423C186.758 116.387 186.678 116.369 186.598 116.369C186.517 116.369 186.438 116.387 186.366 116.423L183.456 118.101C183.336 118.167 183.342 118.288 183.474 118.366H183.499ZM173.63 123.798L170.715 125.482C170.595 125.549 170.601 125.67 170.715 125.748L174.083 127.691C174.155 127.729 174.235 127.748 174.316 127.748C174.396 127.748 174.476 127.729 174.548 127.691L177.457 126.008C177.584 125.935 177.578 125.814 177.457 125.742L174.089 123.798C174.016 123.756 173.934 123.733 173.849 123.731C173.765 123.729 173.681 123.748 173.606 123.786L173.63 123.798ZM141.563 142.279L138.648 143.963C138.528 144.036 138.534 144.15 138.648 144.229L142.016 146.172C142.088 146.209 142.168 146.229 142.248 146.229C142.329 146.229 142.409 146.209 142.481 146.172L145.39 144.488C145.517 144.416 145.511 144.301 145.39 144.223L142.022 142.279C141.951 142.243 141.872 142.225 141.793 142.225C141.713 142.225 141.634 142.243 141.563 142.279ZM183.13 127.999C183.202 128.036 183.282 128.056 183.363 128.056C183.444 128.056 183.523 128.036 183.595 127.999L186.504 126.315C186.631 126.243 186.625 126.128 186.504 126.05L183.136 124.106C183.065 124.069 182.985 124.05 182.904 124.05C182.823 124.05 182.744 124.069 182.672 124.106L179.757 125.79C179.636 125.863 179.642 125.977 179.757 126.056L183.13 127.999ZM145.818 139.823L142.903 141.507C142.783 141.573 142.789 141.694 142.903 141.772L146.271 143.716C146.343 143.753 146.423 143.772 146.504 143.772C146.584 143.772 146.664 143.753 146.736 143.716L149.645 142.032C149.772 141.96 149.766 141.839 149.645 141.766L146.277 139.823C146.208 139.789 146.131 139.771 146.054 139.771C145.976 139.771 145.9 139.789 145.831 139.823H145.818ZM113.927 167.937C113.999 167.972 114.078 167.991 114.159 167.991C114.239 167.991 114.319 167.972 114.391 167.937L117.306 166.253C117.427 166.18 117.421 166.06 117.306 165.987L113.939 164.044C113.867 164.007 113.787 163.987 113.706 163.987C113.625 163.987 113.546 164.007 113.474 164.044L110.565 165.728C110.438 165.794 110.444 165.915 110.565 165.993L113.927 167.937ZM107.529 161.901L104.614 163.585C104.493 163.651 104.499 163.772 104.614 163.851L107.981 165.794C108.054 165.83 108.133 165.848 108.214 165.848C108.294 165.848 108.374 165.83 108.446 165.794L111.355 164.11C111.482 164.038 111.476 163.917 111.355 163.845L107.987 161.901C107.914 161.871 107.834 161.858 107.754 161.864C107.674 161.871 107.597 161.896 107.529 161.937V161.901ZM118.628 165.523L121.543 163.839C121.664 163.766 121.658 163.645 121.543 163.573L118.176 161.63C118.104 161.593 118.024 161.573 117.943 161.573C117.862 161.573 117.783 161.593 117.711 161.63L114.802 163.307C114.675 163.38 114.687 163.501 114.802 163.579L118.17 165.523C118.241 165.558 118.319 165.577 118.399 165.577C118.478 165.577 118.557 165.558 118.628 165.523ZM122.889 163.066L125.798 161.382C125.925 161.31 125.913 161.189 125.798 161.111L122.431 159.167C122.358 159.131 122.279 159.113 122.198 159.113C122.118 159.113 122.038 159.131 121.966 159.167L119.057 160.845C118.936 160.917 118.942 161.038 119.057 161.117L122.425 163.06C122.499 163.099 122.582 163.119 122.666 163.119C122.75 163.119 122.833 163.099 122.907 163.06L122.889 163.066ZM127.114 160.604L130.023 158.926C130.15 158.853 130.138 158.732 130.023 158.654L126.662 156.711C126.589 156.675 126.51 156.656 126.429 156.656C126.349 156.656 126.269 156.675 126.197 156.711L123.282 158.388C123.161 158.461 123.167 158.582 123.282 158.66L126.65 160.604C126.728 160.646 126.817 160.668 126.907 160.667C126.997 160.666 127.085 160.642 127.163 160.597L127.114 160.604ZM111.784 159.487L108.869 161.165C108.748 161.237 108.754 161.358 108.869 161.436L112.237 163.38C112.309 163.416 112.388 163.434 112.469 163.434C112.549 163.434 112.629 163.416 112.701 163.38L115.61 161.696C115.737 161.624 115.731 161.503 115.61 161.43L112.249 159.487C112.176 159.451 112.097 159.433 112.016 159.433C111.936 159.433 111.856 159.451 111.784 159.487ZM116.039 157.03L113.124 158.708C113.003 158.781 113.009 158.901 113.124 158.98L116.492 160.923C116.563 160.96 116.643 160.98 116.724 160.98C116.805 160.98 116.885 160.96 116.956 160.923L119.872 159.246C119.992 159.173 119.986 159.052 119.872 158.974L116.504 157.03C116.432 156.994 116.353 156.974 116.272 156.973C116.191 156.972 116.112 156.99 116.039 157.024V157.03ZM133.065 147.198L130.15 148.882C130.023 148.955 130.035 149.076 130.15 149.148L133.518 151.091C133.59 151.128 133.67 151.148 133.75 151.148C133.831 151.148 133.911 151.128 133.983 151.091L136.892 149.407C137.019 149.341 137.007 149.22 136.892 149.142L133.524 147.198C133.453 147.162 133.375 147.142 133.295 147.141C133.216 147.14 133.137 147.158 133.065 147.192V147.198ZM128.804 149.661L125.871 151.333C125.744 151.405 125.756 151.526 125.871 151.598L129.233 153.548C129.305 153.584 129.385 153.602 129.465 153.602C129.546 153.602 129.625 153.584 129.697 153.548L132.613 151.87C132.733 151.798 132.727 151.677 132.613 151.598L129.245 149.655C129.176 149.622 129.101 149.605 129.025 149.605C128.948 149.605 128.873 149.622 128.804 149.655V149.661ZM137.339 144.736L134.423 146.42C134.303 146.492 134.309 146.613 134.423 146.685L137.791 148.629C137.863 148.666 137.943 148.685 138.024 148.685C138.104 148.685 138.184 148.666 138.256 148.629L141.165 146.945C141.292 146.879 141.28 146.758 141.165 146.679L137.803 144.736C137.731 144.699 137.652 144.68 137.571 144.68C137.49 144.68 137.41 144.699 137.339 144.736ZM120.312 154.568L117.403 156.246C117.276 156.318 117.282 156.439 117.403 156.517L120.771 158.461C120.843 158.497 120.923 158.515 121.003 158.515C121.084 158.515 121.163 158.497 121.236 158.461L124.151 156.783C124.271 156.711 124.265 156.59 124.151 156.511L120.783 154.568C120.708 154.528 120.624 154.508 120.538 154.508C120.453 154.508 120.369 154.528 120.294 154.568H120.312ZM124.567 152.111L121.646 153.789C121.519 153.862 121.525 153.982 121.646 154.061L125.014 156.004C125.086 156.04 125.166 156.059 125.246 156.059C125.327 156.059 125.406 156.04 125.479 156.004L128.394 154.327C128.514 154.254 128.508 154.133 128.394 154.055L125.026 152.111C124.953 152.072 124.871 152.052 124.788 152.052C124.704 152.052 124.623 152.072 124.549 152.111H124.567ZM121.459 169.458L124.374 167.774C124.495 167.701 124.489 167.581 124.374 167.508L121.006 165.559C120.934 165.523 120.854 165.505 120.774 165.505C120.693 165.505 120.614 165.523 120.541 165.559L117.632 167.237C117.506 167.309 117.518 167.43 117.632 167.508L120.994 169.452C121.064 169.485 121.14 169.504 121.217 169.505C121.294 169.506 121.37 169.49 121.441 169.458H121.459ZM96.4897 166.935L93.1219 164.991C93.05 164.954 92.9703 164.935 92.8895 164.935C92.8086 164.935 92.729 164.954 92.6571 164.991L89.7419 166.675C89.6212 166.742 89.6273 166.862 89.7419 166.941L93.1098 168.884C93.1816 168.921 93.2613 168.941 93.3422 168.941C93.423 168.941 93.5027 168.921 93.5745 168.884L96.4837 167.2C96.6104 167.128 96.5984 167.007 96.4716 166.935H96.4897ZM102.863 168.806L99.4954 166.862C99.4236 166.825 99.3439 166.806 99.2631 166.806C99.1822 166.806 99.1025 166.825 99.0307 166.862L94.5523 169.452C94.4316 169.524 94.4376 169.639 94.5523 169.717L97.9201 171.661C97.992 171.698 98.0717 171.717 98.1525 171.717C98.2334 171.717 98.313 171.698 98.3849 171.661L102.863 169.071C102.99 168.999 102.978 168.884 102.845 168.806H102.863ZM91.3233 163.175L87.9554 161.231C87.8835 161.194 87.8039 161.175 87.723 161.175C87.6422 161.175 87.5625 161.194 87.4907 161.231L83.9055 163.301C83.7788 163.374 83.7909 163.495 83.9055 163.573L87.2734 165.516C87.3457 165.552 87.4252 165.571 87.5058 165.571C87.5863 165.571 87.6659 165.552 87.7381 165.516L91.3172 163.446C91.4681 163.374 91.4681 163.253 91.3051 163.175H91.3233ZM94.0694 161.587C94.1413 161.624 94.221 161.644 94.3018 161.644C94.3827 161.644 94.4623 161.624 94.5342 161.587L97.4433 159.903C97.5701 159.831 97.564 159.716 97.4433 159.638L94.0755 157.694C94.0036 157.657 93.924 157.638 93.8431 157.638C93.7623 157.638 93.6826 157.657 93.6107 157.694L90.6956 159.378C90.5748 159.451 90.5809 159.565 90.6956 159.644L94.0694 161.587ZM108.778 170.955L105.41 169.011C105.338 168.974 105.259 168.955 105.178 168.955C105.097 168.955 105.017 168.974 104.946 169.011L99.3445 172.246C99.2238 172.319 99.2299 172.439 99.3445 172.512L102.712 174.455C102.784 174.492 102.864 174.512 102.945 174.512C103.026 174.512 103.105 174.492 103.177 174.455L108.778 171.22C108.917 171.13 108.911 171.015 108.778 170.955ZM111.573 174.896L108.205 172.952C108.133 172.915 108.053 172.896 107.972 172.896C107.892 172.896 107.812 172.915 107.74 172.952L104.143 174.992C104.022 175.065 104.028 175.186 104.143 175.258L107.511 177.207C107.583 177.243 107.662 177.262 107.743 177.262C107.824 177.262 107.903 177.243 107.975 177.207L111.561 175.137C111.711 175.071 111.705 174.956 111.573 174.878V174.896ZM125.696 143.336C125.767 143.373 125.845 143.392 125.925 143.392C126.005 143.392 126.084 143.373 126.155 143.336L129.07 141.652C129.19 141.585 129.184 141.465 129.07 141.386L125.702 139.443C125.63 139.406 125.55 139.386 125.47 139.386C125.389 139.386 125.309 139.406 125.237 139.443L122.328 141.127C122.201 141.199 122.213 141.32 122.328 141.392L125.696 143.336ZM117.18 148.255C117.252 148.29 117.331 148.309 117.412 148.309C117.493 148.309 117.572 148.29 117.644 148.255L120.56 146.571C120.68 146.504 120.674 146.384 120.56 146.305L117.192 144.362C117.119 144.326 117.04 144.308 116.959 144.308C116.879 144.308 116.799 144.326 116.727 144.362L113.8 146.022C113.673 146.094 113.679 146.215 113.8 146.287L117.18 148.255ZM98.3064 159.149C98.3787 159.185 98.4582 159.203 98.5388 159.203C98.6194 159.203 98.6989 159.185 98.7712 159.149L101.68 157.465C101.807 157.393 101.801 157.272 101.68 157.199L98.3004 155.262C98.2285 155.225 98.1489 155.206 98.068 155.206C97.9872 155.206 97.9075 155.225 97.8356 155.262L94.9205 156.946C94.7998 157.012 94.8058 157.133 94.9205 157.212L98.3064 159.149ZM121.435 145.792C121.507 145.829 121.586 145.849 121.667 145.849C121.748 145.849 121.828 145.829 121.9 145.792L124.815 144.108C124.935 144.042 124.929 143.921 124.815 143.843L121.447 141.899C121.375 141.862 121.295 141.843 121.214 141.843C121.134 141.843 121.054 141.862 120.982 141.899L118.073 143.583C117.946 143.656 117.958 143.776 118.073 143.849L121.435 145.792ZM112.925 150.711C112.997 150.747 113.076 150.765 113.157 150.765C113.238 150.765 113.317 150.747 113.389 150.711L116.305 149.033C116.425 148.961 116.419 148.84 116.305 148.762L112.919 146.812C112.847 146.775 112.767 146.756 112.686 146.756C112.605 146.756 112.526 146.775 112.454 146.812L109.575 148.478C109.448 148.55 109.454 148.671 109.575 148.75L112.925 150.711ZM113.908 175.179C113.837 175.142 113.757 175.123 113.676 175.123C113.595 175.123 113.516 175.142 113.444 175.179L108.971 177.769C108.851 177.841 108.857 177.962 108.971 178.04L112.351 180.008C112.423 180.044 112.503 180.062 112.584 180.062C112.664 180.062 112.744 180.044 112.816 180.008L117.294 177.425C117.415 177.352 117.409 177.232 117.294 177.153L113.908 175.179ZM106.817 154.206C106.888 154.243 106.968 154.262 107.049 154.262C107.13 154.262 107.209 154.243 107.281 154.206L110.178 152.546C110.299 152.474 110.293 152.353 110.178 152.274L106.811 150.331C106.738 150.295 106.659 150.277 106.578 150.277C106.498 150.277 106.418 150.295 106.346 150.331L103.437 152.009C103.31 152.081 103.316 152.202 103.437 152.28L106.817 154.206ZM102.562 156.662C102.634 156.698 102.713 156.716 102.794 156.716C102.874 156.716 102.954 156.698 103.026 156.662L105.941 154.978C106.062 154.906 106.056 154.785 105.941 154.713L102.574 152.769C102.502 152.732 102.422 152.713 102.341 152.713C102.26 152.713 102.181 152.732 102.109 152.769L99.1937 154.447C99.0729 154.52 99.079 154.64 99.1937 154.719L102.562 156.662ZM192.757 129.671C192.685 129.635 192.605 129.617 192.525 129.617C192.444 129.617 192.365 129.635 192.292 129.671L185.122 133.812C185.001 133.884 185.008 134.005 185.122 134.077L188.49 136.027C188.562 136.062 188.642 136.081 188.722 136.081C188.803 136.081 188.883 136.062 188.955 136.027L196.119 131.886C196.246 131.82 196.24 131.699 196.119 131.621L192.757 129.671ZM183.348 135.103C183.276 135.066 183.196 135.047 183.115 135.047C183.035 135.047 182.955 135.066 182.883 135.103L179.974 136.787C179.847 136.86 179.853 136.98 179.974 137.053L183.342 138.996C183.414 139.033 183.493 139.052 183.574 139.052C183.655 139.052 183.735 139.033 183.806 138.996L186.722 137.312C186.842 137.246 186.836 137.125 186.722 137.047L183.348 135.103ZM125.702 166.995L128.611 165.317C128.732 165.245 128.726 165.124 128.611 165.046L125.225 163.108C125.153 163.073 125.073 163.054 124.993 163.054C124.912 163.054 124.833 163.073 124.76 163.108L121.851 164.786C121.724 164.859 121.737 164.979 121.851 165.058L125.219 167.001C125.294 167.04 125.377 167.06 125.461 167.059C125.546 167.058 125.628 167.036 125.702 166.995ZM174.838 140.016C174.766 139.979 174.686 139.96 174.605 139.96C174.524 139.96 174.445 139.979 174.373 140.016L171.458 141.694C171.337 141.766 171.343 141.887 171.458 141.966L174.825 143.909C174.898 143.945 174.977 143.963 175.058 143.963C175.138 143.963 175.218 143.945 175.29 143.909L178.199 142.231C178.326 142.159 178.32 142.038 178.199 141.96L174.838 140.016ZM197.012 127.215C196.94 127.178 196.861 127.158 196.78 127.158C196.699 127.158 196.619 127.178 196.548 127.215L193.632 128.899C193.512 128.971 193.518 129.092 193.632 129.164L197 131.108C197.072 131.145 197.152 131.164 197.233 131.164C197.313 131.164 197.393 131.145 197.465 131.108L200.374 129.424C200.501 129.357 200.495 129.237 200.374 129.158L197.012 127.215ZM204.635 126.702L196.487 121.982C196.415 121.945 196.336 121.925 196.255 121.925C196.174 121.925 196.094 121.945 196.022 121.982L193.113 123.666C192.987 123.732 192.993 123.853 193.113 123.931L201.292 128.651C201.363 128.688 201.443 128.707 201.524 128.707C201.605 128.707 201.684 128.688 201.756 128.651L204.671 126.967C204.774 126.895 204.768 126.78 204.635 126.702ZM158.934 149.226C158.862 149.191 158.782 149.172 158.701 149.172C158.621 149.172 158.541 149.191 158.469 149.226L154.884 151.297C154.763 151.363 154.769 151.484 154.884 151.562L158.252 153.506C158.324 153.543 158.403 153.562 158.484 153.562C158.565 153.562 158.645 153.543 158.717 153.506L162.296 151.435C162.422 151.363 162.416 151.242 162.296 151.164L158.934 149.226ZM169.683 143.022C169.611 142.986 169.531 142.968 169.451 142.968C169.37 142.968 169.291 142.986 169.218 143.022L164.74 145.611C164.619 145.684 164.625 145.804 164.74 145.877L168.12 147.778C168.192 147.815 168.272 147.834 168.352 147.834C168.433 147.834 168.513 147.815 168.585 147.778L173.063 145.189C173.184 145.122 173.178 145.002 173.063 144.923L169.683 143.022ZM149.078 154.918C149.006 154.881 148.926 154.862 148.845 154.862C148.765 154.862 148.685 154.881 148.613 154.918L124.664 168.715C124.537 168.788 124.549 168.908 124.664 168.987L128.032 170.93C128.104 170.966 128.183 170.985 128.264 170.985C128.345 170.985 128.424 170.966 128.496 170.93L152.458 157.097C152.584 157.024 152.578 156.904 152.458 156.825L149.078 154.918ZM123.764 169.53C123.692 169.494 123.613 169.476 123.532 169.476C123.452 169.476 123.372 169.494 123.3 169.53L119.715 171.558C119.594 171.631 119.6 171.745 119.715 171.824L123.082 173.767C123.154 173.804 123.234 173.824 123.315 173.824C123.396 173.824 123.475 173.804 123.547 173.767L127.132 171.697C127.253 171.625 127.247 171.504 127.132 171.431L123.764 169.53ZM154.003 152.075C153.931 152.038 153.851 152.019 153.77 152.019C153.69 152.019 153.61 152.038 153.538 152.075L149.959 154.145C149.832 154.218 149.838 154.339 149.959 154.417L153.327 156.361C153.399 156.396 153.479 156.415 153.559 156.415C153.64 156.415 153.719 156.396 153.792 156.361L157.377 154.29C157.497 154.218 157.491 154.103 157.377 154.025L154.003 152.075ZM118.839 172.379C118.768 172.342 118.688 172.323 118.607 172.323C118.526 172.323 118.447 172.342 118.375 172.379L114.79 174.449C114.663 174.522 114.675 174.642 114.79 174.721L118.157 176.664C118.23 176.7 118.309 176.718 118.39 176.718C118.47 176.718 118.55 176.7 118.622 176.664L122.25 174.576C122.376 174.503 122.37 174.389 122.25 174.31L118.839 172.379ZM163.859 146.384C163.787 146.348 163.707 146.329 163.626 146.329C163.546 146.329 163.466 146.348 163.394 146.384L159.809 148.454C159.688 148.526 159.694 148.647 159.809 148.725L163.177 150.669C163.249 150.706 163.328 150.725 163.409 150.725C163.49 150.725 163.57 150.706 163.642 150.669L167.227 148.605C167.347 148.532 167.341 148.412 167.227 148.333L163.859 146.384ZM179.093 137.59C179.02 137.554 178.941 137.536 178.86 137.536C178.78 137.536 178.7 137.554 178.628 137.59L175.713 139.274C175.592 139.346 175.598 139.467 175.713 139.539L179.081 141.489C179.153 141.524 179.232 141.543 179.313 141.543C179.394 141.543 179.473 141.524 179.545 141.489L182.461 139.811C182.581 139.738 182.575 139.618 182.461 139.539L179.093 137.59ZM188.418 130.818L191.327 129.134C191.454 129.062 191.447 128.947 191.327 128.868L187.947 126.895C187.875 126.858 187.795 126.838 187.714 126.838C187.634 126.838 187.554 126.858 187.482 126.895L184.567 128.579C184.446 128.651 184.452 128.772 184.567 128.844L187.935 130.788C188.009 130.828 188.092 130.849 188.176 130.849C188.261 130.849 188.343 130.828 188.418 130.788V130.818ZM169.387 130.697L172.303 129.013C172.423 128.941 172.417 128.82 172.303 128.748L168.935 126.804C168.863 126.767 168.783 126.748 168.702 126.748C168.622 126.748 168.542 126.767 168.47 126.804L165.561 128.488C165.434 128.555 165.44 128.675 165.561 128.754L168.929 130.697C169.002 130.727 169.082 130.74 169.162 130.735C169.241 130.73 169.318 130.706 169.387 130.667V130.697ZM159.731 147.373L168.241 142.454C168.361 142.388 168.355 142.267 168.241 142.189L164.873 140.245C164.801 140.208 164.721 140.189 164.64 140.189C164.56 140.189 164.48 140.208 164.408 140.245L155.898 145.158C155.771 145.231 155.783 145.352 155.898 145.43L159.266 147.373C159.343 147.408 159.427 147.423 159.511 147.417C159.595 147.412 159.676 147.387 159.749 147.343L159.731 147.373ZM183.68 133.262C183.752 133.299 183.831 133.319 183.912 133.319C183.993 133.319 184.073 133.299 184.144 133.262L187.054 131.584C187.18 131.512 187.168 131.391 187.054 131.313L183.686 129.369C183.613 129.334 183.534 129.315 183.453 129.315C183.373 129.315 183.293 129.334 183.221 129.369L180.306 131.053C180.185 131.126 180.191 131.246 180.306 131.319L183.68 133.262ZM179.334 130.498L182.243 128.814C182.37 128.748 182.364 128.627 182.243 128.548L178.875 126.605C178.804 126.568 178.724 126.549 178.643 126.549C178.562 126.549 178.482 126.568 178.411 126.605L175.495 128.289C175.375 128.361 175.381 128.482 175.495 128.555L178.863 130.498C178.941 130.535 179.026 130.551 179.112 130.546C179.197 130.541 179.28 130.514 179.352 130.468L179.334 130.498ZM155.469 149.812L158.385 148.128C158.505 148.056 158.499 147.935 158.385 147.862L155.017 145.919C154.945 145.882 154.865 145.863 154.784 145.863C154.704 145.863 154.624 145.882 154.552 145.919L151.643 147.603C151.516 147.669 151.528 147.79 151.643 147.868L155.005 149.812C155.078 149.853 155.16 149.877 155.244 149.88C155.328 149.883 155.411 149.866 155.488 149.83L155.469 149.812ZM174.27 138.676C174.342 138.713 174.422 138.733 174.503 138.733C174.583 138.733 174.663 138.713 174.735 138.676L177.65 136.992C177.771 136.926 177.765 136.805 177.65 136.727L174.282 134.783C174.21 134.746 174.131 134.727 174.05 134.727C173.969 134.727 173.889 134.746 173.818 134.783L170.908 136.467C170.782 136.54 170.788 136.66 170.908 136.733L174.27 138.676ZM134.194 162.094L137.103 160.416C137.23 160.344 137.218 160.223 137.103 160.145L133.717 158.189C133.645 158.154 133.565 158.135 133.485 158.135C133.404 158.135 133.325 158.154 133.252 158.189L130.337 159.873C130.217 159.946 130.223 160.066 130.337 160.145L133.705 162.088C133.783 162.13 133.871 162.152 133.959 162.151C134.048 162.149 134.135 162.126 134.212 162.082L134.194 162.094ZM138.449 159.638L141.358 157.96C141.485 157.888 141.479 157.767 141.358 157.688L137.99 155.745C137.918 155.709 137.839 155.691 137.758 155.691C137.677 155.691 137.598 155.709 137.526 155.745L134.61 157.429C134.49 157.501 134.496 157.622 134.61 157.694L137.978 159.638C138.054 159.677 138.139 159.697 138.224 159.695C138.31 159.693 138.393 159.669 138.467 159.626L138.449 159.638ZM129.939 164.551L132.848 162.873C132.975 162.8 132.963 162.68 132.848 162.601L129.492 160.646C129.42 160.609 129.341 160.589 129.26 160.589C129.179 160.589 129.099 160.609 129.028 160.646L126.112 162.324C125.992 162.396 125.998 162.517 126.112 162.595L129.48 164.539C129.554 164.576 129.636 164.596 129.719 164.596C129.801 164.596 129.883 164.576 129.957 164.539L129.939 164.551ZM146.995 154.713L149.911 153.029C150.031 152.956 150.025 152.842 149.911 152.763L146.543 150.82C146.471 150.783 146.391 150.763 146.31 150.763C146.23 150.763 146.15 150.783 146.078 150.82L143.169 152.504C143.042 152.576 143.048 152.691 143.169 152.769L146.537 154.713C146.608 154.749 146.686 154.768 146.766 154.768C146.846 154.768 146.924 154.749 146.995 154.713ZM142.74 157.169L145.656 155.485C145.776 155.419 145.77 155.298 145.656 155.22L142.288 153.276C142.216 153.239 142.136 153.22 142.055 153.22C141.974 153.22 141.895 153.239 141.823 153.276L138.908 154.96C138.787 155.033 138.793 155.153 138.908 155.226L142.276 157.169C142.345 157.203 142.422 157.221 142.499 157.221C142.576 157.221 142.653 157.203 142.722 157.169H142.74ZM151.22 152.244L154.136 150.56C154.256 150.488 154.25 150.373 154.136 150.295L150.768 148.351C150.696 148.314 150.616 148.295 150.535 148.295C150.454 148.295 150.375 148.314 150.303 148.351L147.394 150.035C147.267 150.108 147.279 150.222 147.394 150.301L150.762 152.244C150.833 152.28 150.911 152.299 150.991 152.299C151.071 152.299 151.149 152.28 151.22 152.244ZM170.691 115.892C170.763 115.929 170.843 115.948 170.923 115.948C171.004 115.948 171.084 115.929 171.156 115.892L174.071 114.208C174.192 114.136 174.186 114.021 174.071 113.942L173.172 113.423C173.1 113.386 173.02 113.367 172.939 113.367C172.859 113.367 172.779 113.386 172.707 113.423L169.798 115.101C169.677 115.174 169.683 115.294 169.798 115.373L170.691 115.892ZM149.754 129.412C149.826 129.447 149.905 129.466 149.986 129.466C150.067 129.466 150.146 129.447 150.218 129.412L153.128 127.734C153.254 127.661 153.248 127.541 153.128 127.462L149.76 125.519C149.688 125.482 149.608 125.462 149.527 125.462C149.447 125.462 149.367 125.482 149.295 125.519L146.392 127.209C146.271 127.281 146.277 127.402 146.392 127.48L149.754 129.412ZM158.264 124.493C158.336 124.53 158.415 124.549 158.496 124.549C158.577 124.549 158.657 124.53 158.729 124.493L161.644 122.815C161.765 122.742 161.758 122.622 161.644 122.543L158.276 120.6C158.204 120.564 158.124 120.545 158.044 120.545C157.963 120.545 157.883 120.564 157.811 120.6L154.896 122.284C154.775 122.356 154.781 122.477 154.896 122.549L158.264 124.493ZM144.581 132.423C144.653 132.46 144.733 132.48 144.814 132.48C144.894 132.48 144.974 132.46 145.046 132.423L147.955 130.745C148.082 130.673 148.076 130.552 147.955 130.474L144.581 128.536C144.509 128.501 144.429 128.482 144.349 128.482C144.268 128.482 144.189 128.501 144.116 128.536L141.201 130.214C141.081 130.287 141.087 130.407 141.201 130.486L144.581 132.423ZM154.033 126.991C154.105 127.027 154.185 127.046 154.265 127.046C154.346 127.046 154.425 127.027 154.498 126.991L157.407 125.313C157.534 125.241 157.528 125.12 157.407 125.042L154.039 123.098C153.967 123.061 153.887 123.042 153.807 123.042C153.726 123.042 153.646 123.061 153.574 123.098L150.617 124.752C150.496 124.825 150.502 124.945 150.617 125.018L154.033 126.991ZM136.059 137.336C136.131 137.372 136.211 137.391 136.291 137.391C136.372 137.391 136.451 137.372 136.524 137.336L139.433 135.652C139.554 135.58 139.548 135.459 139.433 135.387L136.065 133.443C135.993 133.406 135.913 133.387 135.833 133.387C135.752 133.387 135.672 133.406 135.6 133.443L132.691 135.121C132.564 135.194 132.576 135.314 132.691 135.393L136.059 137.336ZM140.314 134.88C140.386 134.917 140.466 134.936 140.546 134.936C140.627 134.936 140.707 134.917 140.779 134.88L143.688 133.202C143.815 133.13 143.803 133.009 143.688 132.93L140.326 130.987C140.254 130.951 140.174 130.933 140.094 130.933C140.013 130.933 139.934 130.951 139.861 130.987L136.946 132.665C136.825 132.737 136.832 132.858 136.946 132.936L140.314 134.88ZM162.193 120.817C162.265 120.854 162.345 120.873 162.425 120.873C162.506 120.873 162.586 120.854 162.658 120.817L165.567 119.139C165.694 119.067 165.688 118.946 165.567 118.867L164.668 118.348C164.595 118.313 164.516 118.294 164.435 118.294C164.355 118.294 164.275 118.313 164.203 118.348L161.294 120.026C161.167 120.099 161.173 120.219 161.294 120.298L162.193 120.817ZM174.958 113.447C175.03 113.485 175.11 113.504 175.191 113.504C175.271 113.504 175.351 113.485 175.423 113.447L178.338 111.764C178.459 111.691 178.453 111.57 178.338 111.498L177.445 110.979C177.373 110.943 177.293 110.925 177.213 110.925C177.132 110.925 177.052 110.943 176.98 110.979L174.065 112.663C173.944 112.735 173.95 112.856 174.065 112.928L174.958 113.447ZM182.032 117.534C182.104 117.569 182.184 117.588 182.264 117.588C182.345 117.588 182.424 117.569 182.497 117.534L185.412 115.856C185.533 115.783 185.527 115.663 185.412 115.584L182.002 113.647C181.93 113.611 181.85 113.592 181.769 113.592C181.689 113.592 181.609 113.611 181.537 113.647L178.628 115.325C178.501 115.397 178.507 115.518 178.628 115.596L182.032 117.534ZM192.673 128.331L195.582 126.647C195.709 126.575 195.703 126.46 195.582 126.382L192.214 124.438C192.142 124.401 192.062 124.382 191.982 124.382C191.901 124.382 191.821 124.401 191.749 124.438L188.834 126.122C188.713 126.195 188.719 126.309 188.834 126.388L192.202 128.331C192.275 128.369 192.355 128.389 192.437 128.389C192.519 128.389 192.6 128.369 192.673 128.331ZM166.448 118.36C166.52 118.397 166.6 118.417 166.68 118.417C166.761 118.417 166.841 118.397 166.913 118.36L169.828 116.676C169.949 116.61 169.943 116.489 169.828 116.411L168.929 115.892C168.856 115.856 168.777 115.838 168.696 115.838C168.616 115.838 168.536 115.856 168.464 115.892L165.555 117.57C165.428 117.642 165.44 117.763 165.555 117.841L166.448 118.36ZM131.798 139.793C131.87 139.828 131.95 139.847 132.03 139.847C132.111 139.847 132.19 139.828 132.263 139.793L135.178 138.109C135.298 138.036 135.292 137.916 135.178 137.843L131.81 135.9C131.738 135.863 131.658 135.843 131.578 135.843C131.497 135.843 131.417 135.863 131.345 135.9L128.436 137.584C128.309 137.65 128.321 137.771 128.436 137.849L131.798 139.793Z" fill="#E0E0E0"/>
<path d="M149.104 166.247L180.977 147.844L200.593 159.167L168.719 177.57L149.104 166.247Z" fill="#263238"/>
<path d="M85.0815 57.1174L180.051 2.28403C181.91 1.20969 183.431 2.09089 183.431 4.23352V77.7954C183.4 78.3391 183.241 78.8678 182.969 79.3393C182.696 79.8109 182.317 80.2123 181.862 80.5114L84.4779 136.733C83.6148 137.228 82.9087 136.824 82.9087 135.828V60.8776C82.9521 60.1247 83.1712 59.3924 83.5485 58.7394C83.9258 58.0865 84.4508 57.531 85.0815 57.1174Z" fill="#F5F5F5"/>
<path d="M183.431 5.99602V4.23362C183.431 2.09099 181.91 1.21583 180.051 2.28413L85.0815 57.1175C84.4508 57.531 83.9258 58.0865 83.5485 58.7395C83.1712 59.3924 82.9521 60.1247 82.9087 60.8776V64.0342L183.431 5.99602Z" fill="#263238"/>
<path d="M169.274 10.0097C168.939 10.2334 168.662 10.5322 168.463 10.8821C168.263 11.232 168.149 11.6236 168.127 12.0256C168.127 12.768 168.653 13.0698 169.292 12.6956C169.632 12.4769 169.915 12.1806 170.117 11.8312C170.32 11.4817 170.436 11.0891 170.457 10.6857C170.439 9.94333 169.938 9.64155 169.274 10.0097Z" fill="#E0E0E0"/>
<path d="M173.887 7.34794C173.547 7.5679 173.265 7.86531 173.062 8.21574C172.86 8.56617 172.743 8.95964 172.722 9.36383C172.722 10.1062 173.241 10.4019 173.887 10.0338C174.229 9.81037 174.513 9.5089 174.715 9.15421C174.918 8.79952 175.033 8.40177 175.052 7.99375C175.052 7.27551 174.527 6.97374 173.887 7.34794Z" fill="#E0E0E0"/>
<path d="M178.503 4.68025C178.164 4.90093 177.882 5.19851 177.68 5.54879C177.477 5.89907 177.36 6.29217 177.338 6.69613C177.338 7.43851 177.857 7.74029 178.503 7.36608C178.841 7.14604 179.122 6.8493 179.323 6.50003C179.525 6.15076 179.641 5.75884 179.662 5.35623C179.662 4.61386 179.143 4.31208 178.503 4.68025Z" fill="#E0E0E0"/>
<path d="M82.9087 64.0339V78.1873L183.425 20.1552V5.99579L82.9087 64.0339Z" fill="#BA68C8"/>
<path opacity="0.1" d="M82.9087 64.0339V78.1873L183.425 20.1552V5.99579L82.9087 64.0339Z" fill="black"/>
<path d="M89.4931 70.8121C89.155 70.9172 88.796 70.9358 88.4489 70.8664V63.9315C88.4462 63.7998 88.4751 63.6694 88.5334 63.5513C88.6053 63.4376 88.705 63.3441 88.8231 63.2797L89.3422 62.9839C89.475 62.9055 89.5715 62.8813 89.6319 62.9176C89.6922 62.9538 89.7224 63.0443 89.7224 63.1952V65.4766C89.915 65.1778 90.1464 64.9058 90.4105 64.6679C90.6909 64.4134 90.9985 64.1908 91.3279 64.004C92.0884 63.5634 92.6738 63.4608 93.0903 63.7082C93.5067 63.9557 93.6938 64.517 93.6938 65.3861C93.704 66.3615 93.454 67.3219 92.9696 68.1685C92.4535 69.041 91.7138 69.7599 90.8269 70.2508C90.4104 70.4986 89.9615 70.6875 89.4931 70.8121ZM92.0159 67.9814C92.2999 67.4211 92.4389 66.7986 92.4203 66.1707C92.4203 65.5672 92.3117 65.205 92.1004 65.0541C91.8892 64.9033 91.5331 64.9636 91.0321 65.2533C90.6748 65.4634 90.3645 65.7449 90.1208 66.0802C89.8702 66.3923 89.7302 66.7786 89.7224 67.1787V69.5567C89.8819 69.5739 90.0432 69.5532 90.1932 69.4963C90.4027 69.428 90.6049 69.3391 90.7968 69.2308C91.3135 68.9385 91.7364 68.5052 92.0159 67.9814Z" fill="#FAFAFA"/>
<path d="M94.792 67.6918C94.7316 67.6495 94.7015 67.565 94.7015 67.4202V60.3223C94.6977 60.1898 94.7289 60.0587 94.792 59.9421C94.8606 59.8257 94.9611 59.7314 95.0817 59.6705L95.6189 59.3627C95.7517 59.2842 95.8482 59.2661 95.9086 59.2963C95.9689 59.3264 95.9991 59.423 95.9991 59.5739V66.6718C96.0049 66.7999 95.9757 66.9272 95.9146 67.0399C95.844 67.1583 95.7415 67.2545 95.6189 67.3176L95.0817 67.6254C94.9429 67.7038 94.8463 67.7461 94.792 67.6918Z" fill="#FAFAFA"/>
<path d="M97.6995 65.4828C97.2227 65.2233 96.9873 64.6379 96.9873 63.7144C96.9848 62.8007 97.231 61.9036 97.6995 61.1191C98.1923 60.2939 98.8939 59.6132 99.7335 59.1455C100.609 58.6385 101.291 58.5419 101.768 58.7713C102.244 59.0006 102.486 59.6163 102.486 60.5397C102.489 61.4544 102.241 62.3523 101.768 63.135C101.275 63.9621 100.574 64.6449 99.7335 65.1147C98.8523 65.6217 98.1763 65.7424 97.6995 65.4828ZM100.826 62.8996C101.084 62.4001 101.212 61.844 101.2 61.2821C101.2 60.6785 101.073 60.2862 100.826 60.1112C100.578 59.9362 100.222 59.9905 99.7335 60.2681C99.2733 60.5269 98.8948 60.9096 98.6411 61.3726C98.38 61.8668 98.2491 62.4193 98.2608 62.9781C98.2608 63.5897 98.3876 63.9921 98.6411 64.1852C98.8946 64.3663 99.2446 64.318 99.7335 64.0464C100.197 63.7815 100.576 63.3901 100.826 62.9177V62.8996Z" fill="#FAFAFA"/>
<path d="M104.925 63.8046C104.655 63.9146 104.365 63.966 104.074 63.9555C103.965 63.9555 103.941 63.877 103.996 63.7442L104.285 63.0019C104.308 62.9298 104.35 62.8652 104.406 62.8148C104.44 62.8058 104.475 62.8058 104.509 62.8148C105.027 62.7752 105.525 62.6027 105.957 62.3138C106.367 62.0908 106.71 61.764 106.953 61.3662C107.181 60.9186 107.289 60.4195 107.267 59.9177C107.088 60.2487 106.865 60.5533 106.603 60.823C106.331 61.0973 106.022 61.3328 105.686 61.5231C104.931 61.9577 104.34 62.0603 103.917 61.831C103.495 61.6016 103.283 61.0463 103.283 60.1832C103.275 59.2308 103.537 58.2955 104.038 57.4853C104.582 56.6285 105.333 55.9227 106.223 55.4333C106.626 55.1939 107.06 55.013 107.514 54.8961C107.847 54.7972 108.198 54.7745 108.54 54.8297V58.8433C108.55 59.7366 108.343 60.6188 107.937 61.4145C107.509 62.2117 106.859 62.8679 106.066 63.3036C105.701 63.5035 105.319 63.6711 104.925 63.8046ZM106.911 59.3383C107.141 58.9955 107.265 58.5924 107.267 58.1794V56.0972C107.098 56.111 106.933 56.1518 106.778 56.2179C106.569 56.2995 106.367 56.3984 106.174 56.5136C105.669 56.7818 105.251 57.188 104.968 57.6849C104.684 58.1818 104.548 58.7489 104.575 59.3202C104.575 59.9237 104.69 60.2617 104.925 60.4126C105.16 60.5635 105.529 60.4911 105.999 60.2195C106.369 60.0025 106.681 59.7004 106.911 59.3383Z" fill="#FAFAFA"/>
<path d="M100.067 74.5421V124.293C100.067 124.625 100.242 124.794 100.453 124.668C100.575 124.565 100.673 124.437 100.74 124.292C100.807 124.146 100.841 123.988 100.839 123.829V74.0774C100.839 73.7454 100.664 73.5825 100.453 73.7092C100.33 73.81 100.231 73.9373 100.164 74.0815C100.098 74.2257 100.064 74.3832 100.067 74.5421Z" fill="#BA68C8"/>
<path d="M70.6538 93.8435L92.5569 81.1688C93.2812 80.7523 93.8667 81.0903 93.8667 81.9232V97.3321C93.842 97.7858 93.7106 98.2274 93.483 98.6207C93.2554 99.014 92.9381 99.348 92.5569 99.5954L70.6538 112.24C69.9355 112.656 69.3501 112.318 69.3501 111.486V96.1129C69.3741 95.6589 69.5046 95.2168 69.7311 94.8226C69.9576 94.4284 70.2736 94.093 70.6538 93.8435Z" fill="#E0E0E0"/>
<path d="M93.8852 81.9482C93.8852 81.1153 93.2817 80.7773 92.5755 81.1937L70.6723 93.8685C70.293 94.1173 69.9774 94.4518 69.751 94.8449C69.5245 95.238 69.3936 95.6788 69.3687 96.1318V97.4415L93.8852 83.2639V81.9482Z" fill="#BA68C8"/>
<path d="M71.7915 98.8354L81.5993 93.174V103.084L71.7915 108.746V98.8354Z" fill="#FAFAFA"/>
<path d="M71.7983 107.303L75.474 100.773C75.503 100.707 75.5487 100.65 75.6067 100.607C75.6647 100.564 75.7329 100.538 75.8045 100.53C75.876 100.522 75.9484 100.533 76.0143 100.562C76.0803 100.591 76.1375 100.636 76.1802 100.694L77.4658 102.107L79.6808 96.9944C79.8136 96.6866 80.0731 96.6564 80.2844 96.934L81.6243 98.8352V103.06L71.8164 108.722L71.7983 107.303Z" fill="#BA68C8"/>
<path d="M84.061 92.6122C84.061 93.083 84.4111 93.2641 84.8457 93.0106L90.6278 89.6729C90.8518 89.5311 91.0395 89.3388 91.1758 89.1113C91.312 88.8839 91.3931 88.6276 91.4124 88.3632C91.4124 87.8924 91.0623 87.7113 90.6338 87.9648L84.8336 91.2844C84.6084 91.4282 84.4208 91.6237 84.2864 91.8547C84.152 92.0857 84.0748 92.3454 84.061 92.6122Z" fill="#FAFAFA"/>
<path d="M84.061 96.7174C84.061 97.1882 84.4111 97.3692 84.8457 97.1218L90.6278 93.7781C90.8525 93.637 91.0407 93.4449 91.177 93.2172C91.3134 92.9896 91.394 92.733 91.4124 92.4684C91.4124 91.9976 91.0623 91.8225 90.6338 92.07L84.8336 95.3775C84.6078 95.5236 84.42 95.7213 84.2857 95.9543C84.1514 96.1872 84.0744 96.4488 84.061 96.7174Z" fill="#FAFAFA"/>
<path d="M84.061 100.761C84.061 101.238 84.4111 101.413 84.8457 101.166L90.6278 97.8219C90.8524 97.6821 91.0406 97.4911 91.177 97.2645C91.3134 97.0378 91.3941 96.7821 91.4124 96.5182C91.4124 96.0474 91.0623 95.8663 90.6338 96.1138L84.8336 99.4575C84.6112 99.5986 84.4254 99.7902 84.2911 100.017C84.1569 100.243 84.078 100.498 84.061 100.761Z" fill="#FAFAFA"/>
<path d="M70.6538 117.697L92.5569 105.052C93.2812 104.636 93.8667 104.974 93.8667 105.806V121.215C93.842 121.669 93.7106 122.111 93.483 122.504C93.2554 122.897 92.9381 123.231 92.5569 123.479L70.6538 136.153C69.9355 136.57 69.3501 136.232 69.3501 135.399V119.96C69.375 119.507 69.506 119.066 69.7324 118.673C69.9588 118.28 70.2744 117.945 70.6538 117.697Z" fill="#E0E0E0"/>
<path d="M93.8852 105.806C93.8852 104.974 93.2817 104.636 92.5755 105.052L70.6723 117.697C70.293 117.945 69.9774 118.28 69.751 118.673C69.5245 119.066 69.3936 119.507 69.3687 119.96V121.276L93.8852 107.116V105.806Z" fill="#BA68C8"/>
<path d="M71.7915 122.688L81.5993 117.027V126.937L71.7915 132.598V122.688Z" fill="#FAFAFA"/>
<path d="M71.7983 131.162L75.474 124.631C75.503 124.565 75.5487 124.508 75.6067 124.466C75.6647 124.423 75.7329 124.396 75.8045 124.388C75.876 124.381 75.9484 124.392 76.0143 124.42C76.0803 124.449 76.1375 124.495 76.1802 124.553L77.4658 125.959L79.6808 120.847C79.8136 120.539 80.0731 120.515 80.2844 120.787L81.6243 122.688V126.913L71.8164 132.574L71.7983 131.162Z" fill="#BA68C8"/>
<path d="M84.061 116.465C84.061 116.936 84.4111 117.117 84.8457 116.87L90.6278 113.526C90.8524 113.386 91.0406 113.195 91.177 112.969C91.3134 112.742 91.3941 112.486 91.4124 112.222C91.4124 111.746 91.0623 111.571 90.6338 111.818L84.8336 115.162C84.6112 115.303 84.4254 115.494 84.2911 115.721C84.1569 115.948 84.078 116.203 84.061 116.465Z" fill="#FAFAFA"/>
<path d="M84.061 120.539C84.061 121.016 84.4111 121.191 84.8457 120.944L90.6278 117.6C90.8524 117.46 91.0406 117.269 91.177 117.043C91.3134 116.816 91.3941 116.56 91.4124 116.296C91.4124 115.826 91.0623 115.645 90.6338 115.892L84.8336 119.236C84.6112 119.377 84.4254 119.568 84.2911 119.795C84.1569 120.022 84.078 120.277 84.061 120.539Z" fill="#FAFAFA"/>
<path d="M84.061 124.619C84.061 125.09 84.4111 125.271 84.8457 125.018L90.6278 121.68C90.8518 121.538 91.0395 121.346 91.1758 121.118C91.312 120.891 91.3931 120.635 91.4124 120.37C91.4124 119.9 91.0623 119.718 90.6338 119.972L84.8336 123.31C84.6118 123.453 84.4264 123.646 84.2923 123.873C84.1582 124.1 84.079 124.356 84.061 124.619Z" fill="#FAFAFA"/>
<path d="M108.743 94.4174L176.082 55.5422C176.801 55.1257 177.386 55.4637 177.386 56.2966V75.9304C177.361 76.3834 177.23 76.8242 177.004 77.2173C176.777 77.6104 176.462 77.9449 176.082 78.1937L108.743 117.069C108.019 117.485 107.434 117.147 107.434 116.314V96.6807C107.458 96.227 107.59 95.7854 107.817 95.3921C108.045 94.9988 108.362 94.6648 108.743 94.4174Z" fill="#E0E0E0"/>
<path d="M177.386 56.2785C177.386 55.4456 176.783 55.1076 176.082 55.524L108.743 94.4173C108.362 94.6648 108.045 94.9987 107.817 95.3921C107.59 95.7854 107.458 96.2269 107.434 96.6806V97.9904L177.386 57.6063V56.2785Z" fill="#BA68C8"/>
<path d="M124.066 90.337L110.462 98.1833C110.159 98.3829 109.907 98.6506 109.726 98.9649C109.544 99.2793 109.439 99.6317 109.418 99.9939V113.441C109.418 114.105 109.889 114.377 110.462 114.045L124.066 106.199C124.37 105.999 124.622 105.732 124.803 105.417C124.985 105.103 125.09 104.75 125.11 104.388V90.9405C125.086 90.2766 124.616 90.005 124.066 90.337Z" fill="#FAFAFA"/>
<path d="M114.191 102.149L109.393 112.409V113.472C109.393 114.135 109.863 114.407 110.437 114.075L124.041 106.229C124.344 106.03 124.597 105.762 124.778 105.448C124.959 105.133 125.065 104.781 125.085 104.418V99.7346L122.514 94.9061C122.2 94.3026 121.735 94.3328 121.476 94.9484L117.426 104.454L115.458 102.004C115.393 101.884 115.293 101.785 115.171 101.722C115.05 101.659 114.912 101.634 114.776 101.649C114.64 101.665 114.511 101.721 114.407 101.81C114.303 101.899 114.227 102.017 114.191 102.149Z" fill="#BA68C8"/>
<path d="M110.968 102.028C111.651 101.583 112.22 100.982 112.628 100.275C113.036 99.5684 113.272 98.7753 113.316 97.9604C113.333 97.5299 113.208 97.1056 112.96 96.7533L110.437 98.2079C110.134 98.4075 109.881 98.6752 109.7 98.9895C109.519 99.3039 109.414 99.6563 109.393 100.019V102.258C109.654 102.35 109.934 102.377 110.208 102.337C110.483 102.297 110.743 102.191 110.968 102.028Z" fill="#BA68C8"/>
<path d="M131.232 87.38L173.276 63.1109C173.879 62.7729 174.32 63.0023 174.32 63.6179C174.292 63.9654 174.183 64.3015 174.002 64.5992C173.82 64.8969 173.572 65.1479 173.276 65.332L131.232 89.6071C130.628 89.9391 130.188 89.7097 130.188 89.0941C130.215 88.7466 130.324 88.4105 130.506 88.1127C130.687 87.815 130.936 87.564 131.232 87.38Z" fill="#FAFAFA"/>
<path d="M131.232 93.0414L173.276 68.7723C173.879 68.4343 174.32 68.6637 174.32 69.2793C174.292 69.6268 174.183 69.9629 174.002 70.2607C173.82 70.5584 173.572 70.8094 173.276 70.9934L131.232 95.2686C130.628 95.6005 130.188 95.3712 130.188 94.7555C130.216 94.4082 130.325 94.0722 130.506 93.7746C130.687 93.4769 130.936 93.2258 131.232 93.0414Z" fill="#FAFAFA"/>
<path d="M131.232 98.7029L173.276 74.4338C173.879 74.0958 174.32 74.3252 174.32 74.9408C174.291 75.289 174.182 75.6258 174.001 75.9244C173.82 76.223 173.571 76.4752 173.276 76.661L131.232 100.942C130.628 101.274 130.188 101.045 130.188 100.429C130.214 100.08 130.322 99.7413 130.504 99.4414C130.685 99.1415 130.934 98.8885 131.232 98.7029Z" fill="#FAFAFA"/>
<path d="M200.018 32.3226L193.85 32.1355C193.434 31.7854 186.951 24.4703 186.951 24.4703C186.951 24.4703 184.622 28.1459 184.579 28.3813C184.537 28.6167 190.935 35.455 191.569 36.1431C191.746 36.3743 191.975 36.5614 192.236 36.6902C192.498 36.8189 192.786 36.8857 193.077 36.8855C194.749 36.982 201.008 37.4226 201.008 37.4226L200.018 32.3226Z" fill="#F28F8F"/>
<path d="M208.789 39.4143L199.277 38.7081L200.014 32.3225L209.834 32.5398L208.789 39.4143Z" fill="#BA68C8"/>
<path opacity="0.2" d="M208.789 39.4143L199.277 38.7081L200.014 32.3225L209.834 32.5398L208.789 39.4143Z" fill="black"/>
<path d="M121.005 60.4186L188.344 21.5433C189.062 21.1269 189.648 21.4649 189.648 22.2978V41.9376C189.622 42.3905 189.491 42.8311 189.265 43.2242C189.039 43.6172 188.723 43.9517 188.344 44.2009L121.005 83.0762C120.281 83.4926 119.695 83.1546 119.695 82.3217V62.6819C119.72 62.2281 119.851 61.7866 120.079 61.3933C120.307 61 120.624 60.666 121.005 60.4186Z" fill="#E0E0E0"/>
<path d="M189.648 22.2978C189.648 21.4649 189.044 21.1269 188.344 21.5433L121.005 60.4185C120.624 60.666 120.307 61 120.079 61.3933C119.851 61.7866 119.72 62.2281 119.695 62.6819V63.9916L189.648 23.6075V22.2978Z" fill="#BA68C8"/>
<path d="M136.304 56.3444L122.699 64.1906C122.395 64.3892 122.142 64.6566 121.961 64.9712C121.78 65.2858 121.675 65.6387 121.655 66.0013V79.4426C121.655 80.1065 122.126 80.3781 122.699 80.0461L136.304 72.1999C136.608 72.0013 136.861 71.7339 137.042 71.4193C137.223 71.1047 137.328 70.7518 137.348 70.3892V56.9479C137.348 56.278 136.877 56.0124 136.304 56.3444Z" fill="#FAFAFA"/>
<path d="M126.484 68.156L121.655 78.3863V79.4486C121.655 80.1125 122.126 80.3841 122.699 80.0521L136.304 72.2059C136.608 72.0073 136.861 71.7399 137.042 71.4253C137.223 71.1107 137.328 70.7578 137.348 70.3952V65.7538L134.777 60.9254C134.463 60.3218 133.998 60.358 133.739 60.9676L129.689 70.4918L127.721 68.0353C127.653 67.9257 127.555 67.8374 127.439 67.7804C127.323 67.7233 127.194 67.6997 127.065 67.7122C126.936 67.7248 126.814 67.773 126.711 67.8514C126.608 67.9298 126.53 68.0353 126.484 68.156Z" fill="#BA68C8"/>
<path d="M123.231 68.0356C123.914 67.5882 124.483 66.9863 124.89 66.2786C125.298 65.5709 125.534 64.7772 125.578 63.9616C125.595 63.5311 125.47 63.1072 125.222 62.7545L122.699 64.2151C122.395 64.4137 122.142 64.6811 121.961 64.9957C121.78 65.3102 121.675 65.6631 121.655 66.0257V68.2589C121.916 68.3518 122.196 68.38 122.47 68.3411C122.745 68.3022 123.006 68.1974 123.231 68.0356Z" fill="#BA68C8"/>
<path d="M143.493 53.3809L185.537 29.1179C186.14 28.7859 186.581 29.0092 186.581 29.6248C186.553 29.9732 186.444 30.3101 186.263 30.6088C186.082 30.9075 185.833 31.1596 185.537 31.345L143.493 55.6141C142.919 55.9461 142.449 55.7228 142.449 55.1071C142.476 54.7579 142.585 54.4199 142.766 54.1202C142.947 53.8204 143.196 53.5673 143.493 53.3809Z" fill="#FAFAFA"/>
<path d="M143.493 59.0422L185.537 34.7731C186.14 34.4412 186.581 34.6705 186.581 35.2801C186.553 35.6284 186.444 35.9654 186.263 36.2641C186.082 36.5628 185.833 36.8149 185.537 37.0002L143.493 61.2693C142.919 61.6073 142.449 61.378 142.449 60.7624C142.477 60.4142 142.586 60.0774 142.767 59.7788C142.949 59.4801 143.197 59.2279 143.493 59.0422Z" fill="#FAFAFA"/>
<path d="M143.493 64.7281L185.537 40.459C186.14 40.127 186.581 40.3564 186.581 40.966C186.553 41.3143 186.444 41.6512 186.263 41.9499C186.082 42.2486 185.833 42.5007 185.537 42.6861L143.493 66.9552C142.919 67.2932 142.449 67.0638 142.449 66.4482C142.477 66.1 142.586 65.7632 142.767 65.4646C142.949 65.166 143.197 64.9138 143.493 64.7281Z" fill="#FAFAFA"/>
<path d="M220.938 106.929H217.377V112.12H220.938V106.929Z" fill="#FFA8A7"/>
<path d="M208.408 100.492L204.85 100.614L205.028 105.802L208.587 105.68L208.408 100.492Z" fill="#FFA8A7"/>
<path d="M220.71 56.2779C220.71 59.682 221.151 81.6937 221.151 81.6937C221.236 82.6715 222.153 84.4762 221.954 88.2424C221.688 93.3485 221.242 107.556 221.242 107.556C221.242 107.556 219.576 109.216 217.216 107.556C217.216 107.556 213.987 88.2725 213.347 83.2147C212.792 78.7967 211.844 66.7919 211.844 66.7919L208.573 80.891C208.573 80.891 209.176 84.2106 209.285 86.5584C209.394 88.9063 208.681 102.438 208.681 102.438C208.105 102.8 207.444 103.005 206.764 103.031C206.084 103.058 205.409 102.905 204.807 102.589C204.807 102.589 201.934 82.8345 201.541 80.6858C201.149 78.5371 204.046 56.2779 204.046 56.2779H220.71Z" fill="#455A64"/>
<path d="M215.347 32.6969H215.395C216.92 33.087 218.271 33.9753 219.233 35.2208C220.195 36.4662 220.714 37.9975 220.706 39.5714V56.2779C218.208 58.9939 209.498 60.2614 204.042 56.2779V38.8954C204.042 36.119 205.581 32.7814 209.842 32.5339L215.347 32.6969Z" fill="#BA68C8"/>
<path d="M216.541 18.489C216.829 18.4555 217.12 18.4881 217.393 18.5843C217.666 18.6806 217.914 18.8379 218.117 19.0442C218.793 19.7323 218.648 21.0118 218.117 23.9451L216.028 24.1866L216.541 18.489Z" fill="#263238"/>
<path d="M204.388 17.6504C203.938 17.6522 203.492 17.5618 203.079 17.3848C202.439 17.0166 202.276 17.7409 202.626 18.3746C202.857 18.8274 203.2 19.2133 203.623 19.4955C204.045 19.7776 204.533 19.9466 205.04 19.9861C205.04 19.8956 205.644 18.3565 205.644 18.3565L204.388 17.6504Z" fill="#263238"/>
<path d="M215.565 24.1866C215.879 24.3737 216.319 23.7762 216.699 23.3779C216.85 23.2067 217.042 23.0766 217.257 22.9998C217.471 22.923 217.702 22.902 217.927 22.9388C218.152 22.9756 218.364 23.069 218.543 23.2102C218.722 23.3514 218.862 23.5358 218.951 23.746C219.584 25.0799 218.148 26.8544 217.303 27.4398C217.066 27.6452 216.771 27.7704 216.458 27.7975C216.146 27.8246 215.833 27.7522 215.565 27.5907L215.348 32.6968C214.974 33.5158 214.403 34.2292 213.686 34.7728C212.968 35.3164 212.127 35.6732 211.237 35.8112C208.219 36.2216 208.859 33.747 209.843 32.5338V30.6809C209.093 30.8403 208.323 30.879 207.562 30.7956C207.169 30.693 206.24 29.5885 205.636 28.3029C204.96 26.8845 203.826 24.3677 204.833 20.1126C205.914 15.5437 210.821 15.4048 213.748 17.2457C216.675 19.0866 215.565 24.1866 215.565 24.1866Z" fill="#FFA8A7"/>
<path d="M215.563 24.7119C215.72 24.7119 216.312 23.7281 216.698 23.378C217.235 22.8952 216.541 18.4892 216.541 18.4892C216.541 18.4892 217.084 16.8234 216.028 15.7128C214.972 14.6023 212.926 14.7954 211.429 14.7411C209.592 14.7522 207.772 14.3866 206.081 13.6668C203.963 12.7433 203.8 12.6347 203.54 13.5702C203.281 14.5057 203.172 16.6363 204.446 18.0727L205.496 18.459C205.496 18.459 206.069 18.966 208.049 19.2074C209.877 19.3454 211.714 19.309 213.535 19.0988C214.109 19.0203 214.235 19.5816 214.543 21.1026C214.815 22.4365 215.044 24.6998 215.563 24.7119Z" fill="#263238"/>
<path d="M216.546 18.8573L218.417 17.8554C218.358 17.729 218.273 17.616 218.169 17.5233C218.064 17.4306 217.942 17.3601 217.809 17.3161C217.676 17.2721 217.536 17.2555 217.397 17.2672C217.258 17.279 217.122 17.3189 216.999 17.3846C216.749 17.5249 216.562 17.7562 216.478 18.0303C216.394 18.3045 216.418 18.6006 216.546 18.8573Z" fill="#263238"/>
<path d="M209.853 30.6809C211.132 30.4367 212.386 30.0771 213.601 29.6065C214.168 29.3057 214.635 28.8437 214.941 28.2787C214.794 28.8455 214.536 29.377 214.18 29.8419C213.468 30.7473 209.853 31.4172 209.853 31.4172V30.6809Z" fill="#F28F8F"/>
<path d="M210.514 23.4925C210.522 23.6016 210.562 23.7059 210.628 23.7926C210.695 23.8793 210.786 23.9446 210.889 23.9805C210.992 24.0164 211.104 24.0213 211.21 23.9946C211.316 23.9679 211.412 23.9108 211.486 23.8303C211.56 23.7498 211.609 23.6494 211.627 23.5414C211.645 23.4335 211.631 23.3227 211.586 23.2227C211.542 23.1227 211.469 23.0378 211.377 22.9785C211.285 22.9192 211.178 22.8881 211.069 22.889C210.992 22.8913 210.917 22.9088 210.848 22.9406C210.778 22.9723 210.716 23.0176 210.664 23.0739C210.612 23.1301 210.572 23.1961 210.547 23.268C210.521 23.3399 210.509 23.4162 210.514 23.4925Z" fill="#263238"/>
<path d="M211.107 21.3923L212.315 22.0501C212.4 21.8869 212.418 21.6971 212.367 21.5204C212.315 21.3438 212.197 21.194 212.037 21.1026C211.958 21.0562 211.87 21.0268 211.779 21.0163C211.688 21.0059 211.596 21.0145 211.508 21.0418C211.421 21.0691 211.34 21.1144 211.271 21.1747C211.202 21.2351 211.146 21.3092 211.107 21.3923Z" fill="#263238"/>
<path d="M210.557 27.2647L209.289 27.7416C209.316 27.8272 209.36 27.9065 209.419 27.9745C209.478 28.0426 209.549 28.0981 209.63 28.1376C209.711 28.1771 209.799 28.1998 209.888 28.2043C209.978 28.2089 210.068 28.1952 210.152 28.164C210.323 28.0953 210.46 27.9633 210.535 27.7957C210.61 27.6281 210.618 27.4379 210.557 27.2647Z" fill="#F28F8F"/>
<path d="M205.551 21.8749L206.637 21.036C206.586 20.9629 206.521 20.9009 206.445 20.8538C206.37 20.8067 206.285 20.7754 206.197 20.7619C206.109 20.7483 206.019 20.7528 205.933 20.775C205.847 20.7972 205.766 20.8367 205.696 20.8911C205.55 21.0057 205.455 21.1713 205.428 21.3543C205.401 21.5372 205.445 21.7235 205.551 21.8749Z" fill="#263238"/>
<path d="M205.887 23.3357C205.88 23.4126 205.89 23.49 205.914 23.5631C205.939 23.6361 205.979 23.7032 206.031 23.76C206.084 23.8168 206.147 23.862 206.218 23.8929C206.289 23.9238 206.365 23.9396 206.442 23.9393C206.563 23.949 206.684 23.922 206.79 23.8619C206.895 23.8017 206.98 23.7112 207.033 23.6021C207.086 23.493 207.105 23.3705 207.088 23.2504C207.07 23.1303 207.017 23.0183 206.935 22.929C206.852 22.8397 206.745 22.7772 206.627 22.7498C206.509 22.7223 206.385 22.7311 206.272 22.775C206.159 22.8189 206.062 22.8959 205.993 22.9959C205.924 23.096 205.887 23.2144 205.887 23.3357Z" fill="#263238"/>
<path d="M208.723 22.8105L208.542 26.1542L206.792 25.5627L208.723 22.8105Z" fill="#F28F8F"/>
<path d="M217.381 110.357V109.85C217.037 109.994 216.246 113.018 214.834 114.31C213.705 115.336 212.172 116.519 211.786 117.66C211.4 118.8 213.923 119.507 214.973 119.319C216.18 119.102 218.304 118.245 218.836 117.448C219.367 116.652 219.614 115.475 220.043 114.895C220.471 114.316 221.467 113.658 221.702 112.982C221.772 112.351 221.702 111.712 221.497 111.111C221.334 110.507 221.153 109.789 220.936 109.85V110.236C220.43 110.637 219.801 110.85 219.155 110.839C218.642 110.858 217.375 110.755 217.381 110.357Z" fill="#263238"/>
<path d="M204.987 104.714C204.8 104.714 204.649 104.979 204.239 105.426C203.63 106.042 202.922 106.552 202.144 106.935C200.81 107.599 198.215 108.625 197.044 109.156C196.308 109.488 196.344 110.363 197.098 110.876C197.853 111.389 199.688 111.745 201.891 111.25C203.098 110.985 204.643 109.88 205.633 109.94C206.623 110.001 208.463 109.983 209.194 109.482C209.924 108.981 209.628 107.906 209.423 106.989C209.2 105.981 208.874 104.442 208.542 104.514V104.828C208.113 105.474 205.935 105.74 204.993 105.263L204.987 104.714Z" fill="#263238"/>
<path d="M216.415 35.0145L205.406 46.3976C205.406 46.3976 195.749 44.6714 192.454 43.7238C191.416 43.4281 190.692 41.877 190.462 40.706C190.403 40.0964 190.106 39.5346 189.635 39.1428C189.635 39.1428 189.635 39.9939 189.418 41.3881C189.334 41.9916 188.38 42.0701 187.529 42.2572C184.511 42.909 183.485 42.2572 182.236 43.1263C181.27 43.8144 182.483 45.6009 184.686 46.2045C187.782 47.0555 189.515 46.633 191.374 47.0977C192.828 47.4599 203.294 50.7191 205.286 51.1778C206.336 51.4071 207.138 51.3347 208.303 50.2061C209.468 49.0774 218.135 41.4967 218.135 41.4967L216.415 35.0145Z" fill="#FFA8A7"/>
<path d="M216.908 34.6225C215.701 34.3147 208.338 43.0723 208.338 43.0723L212.394 46.4764C212.394 46.4764 217.645 43.0361 218.574 41.6479C219.504 40.2598 220.56 35.5339 216.908 34.6225Z" fill="#BA68C8"/>
<path d="M212.654 46.7055C212.654 46.7055 218.195 41.7442 218.455 41.201C218.956 40.1569 218.817 38.2255 218.817 38.2255C218.817 38.2255 219.42 39.9034 218.817 41.201C218.213 42.4987 213.988 46.1864 213.318 46.8201L212.636 47.4599L211.979 46.8563L212.371 46.5123L212.654 46.7055Z" fill="#BA68C8"/>
<path opacity="0.2" d="M212.654 46.7055C212.654 46.7055 218.195 41.7442 218.455 41.201C218.956 40.1569 218.817 38.2255 218.817 38.2255C218.817 38.2255 219.42 39.9034 218.817 41.201C218.213 42.4987 213.988 46.1864 213.318 46.8201L212.636 47.4599L211.979 46.8563L212.371 46.5123L212.654 46.7055Z" fill="black"/>
<path d="M184.823 22.1409C186.03 22.0081 186.833 21.1149 187.105 21.3623C187.215 21.4796 187.279 21.6325 187.286 21.7932C187.292 21.9539 187.241 22.1116 187.141 22.2375C186.584 22.6606 185.975 23.0115 185.33 23.2817C185.179 23.8951 185.07 24.5182 185.004 25.1466C184.902 26.0701 184.938 27.917 184.147 28.5447C181.787 30.4399 181.184 27.4341 181.274 25.4182C181.413 22.9135 183.562 22.2797 184.823 22.1409Z" fill="#F28F8F"/>
</svg>
