<svg width="200" height="175" viewBox="0 0 200 175" fill="none" xmlns="http://www.w3.org/2000/svg">
<path d="M21.7409 70.3584H19.272C16.6228 70.3584 14.082 71.2992 12.2087 72.9739C10.3354 74.6485 9.28296 76.9199 9.28296 79.2882V128.29C9.28296 130.659 10.3354 132.93 12.2087 134.605C14.082 136.279 16.6228 137.22 19.272 137.22H53.143C55.7922 137.22 58.333 136.279 60.2063 134.605C62.0796 132.93 63.132 130.659 63.132 128.29" stroke="#263238" stroke-width="1.10311" stroke-linecap="round" stroke-linejoin="round" stroke-dasharray="4.41 4.41"/>
<path d="M60.3718 24.1213V14.4423C60.3718 12.994 61.0144 11.6049 62.1587 10.5797C63.3029 9.55445 64.8554 8.97687 66.4755 8.97363H110.522C112.145 8.97363 113.701 9.54979 114.848 10.5754C115.995 11.6009 116.64 12.9919 116.64 14.4423" stroke="#263238" stroke-width="1.10311" stroke-linecap="round" stroke-linejoin="round" stroke-dasharray="4.41 4.41"/>
<path d="M100 175C148.18 175 187.237 170.122 187.237 164.104C187.237 158.086 148.18 153.207 100 153.207C51.8205 153.207 12.7631 158.086 12.7631 164.104C12.7631 170.122 51.8205 175 100 175Z" fill="#2893A9"/>
<path opacity="0.5" d="M100 175C148.18 175 187.237 170.122 187.237 164.104C187.237 158.086 148.18 153.207 100 153.207C51.8205 153.207 12.7631 158.086 12.7631 164.104C12.7631 170.122 51.8205 175 100 175Z" fill="white"/>
<path d="M182.236 37.1071V110.427C182.236 112.824 181.171 115.122 179.276 116.817C177.38 118.513 174.81 119.466 172.128 119.467H27.8719C25.1908 119.466 22.62 118.513 20.7246 116.817C18.8292 115.122 17.7644 112.824 17.7644 110.427V37.1071C17.7644 36.8913 17.7644 36.6999 17.7963 36.4719C17.9739 34.1911 19.1125 32.0554 20.9824 30.4956C22.8523 28.9358 25.3144 28.0681 27.8719 28.0674H172.128C174.689 28.0683 177.153 28.9384 179.024 30.5015C180.894 32.0647 182.031 34.2045 182.204 36.4882C182.227 36.6837 182.236 36.8954 182.236 37.1071Z" fill="white" stroke="#263238" stroke-width="1.10311" stroke-linecap="round" stroke-linejoin="round"/>
<path d="M22.6838 39.8594H177.831V107.588C177.831 109.835 176.833 111.989 175.056 113.577C173.28 115.166 170.87 116.058 168.357 116.058H32.1628C29.65 116.058 27.2402 115.166 25.4634 113.577C23.6866 111.989 22.6884 109.835 22.6884 107.588V39.8594H22.6838Z" fill="#263238"/>
<path opacity="0.2" d="M177.836 39.8594V107.588C177.849 109.822 176.87 111.969 175.113 113.557C173.356 115.146 170.965 116.045 168.466 116.058H32.0535C29.5548 116.045 27.1641 115.146 25.4071 113.557C23.6501 111.969 22.6705 109.822 22.6839 107.588V39.8594H177.836Z" fill="white"/>
<path d="M182.204 36.4885H17.7964C17.974 34.2077 19.1126 32.072 20.9825 30.5122C22.8524 28.9524 25.3145 28.0847 27.872 28.084H172.129C174.686 28.0847 177.148 28.9524 179.018 30.5122C180.888 32.072 182.027 34.2077 182.204 36.4885Z" fill="#2893A9" stroke="#263238" stroke-width="1.10311" stroke-miterlimit="10"/>
<path d="M37.9977 32.2692C37.9977 32.5857 37.8927 32.8951 37.696 33.1583C37.4993 33.4215 37.2197 33.6266 36.8926 33.7477C36.5655 33.8688 36.2056 33.9005 35.8584 33.8388C35.5111 33.777 35.1921 33.6246 34.9418 33.4008C34.6914 33.177 34.5209 32.8919 34.4519 32.5814C34.3828 32.271 34.4183 31.9492 34.5537 31.6568C34.6892 31.3644 34.9187 31.1145 35.2131 30.9386C35.5074 30.7628 35.8535 30.6689 36.2076 30.6689C36.6824 30.6689 37.1377 30.8375 37.4734 31.1377C37.8091 31.4378 37.9977 31.8448 37.9977 32.2692Z" fill="#263238"/>
<path d="M45.5681 32.2692C45.5681 32.5857 45.4631 32.8951 45.2664 33.1583C45.0697 33.4215 44.7902 33.6266 44.4631 33.7477C44.136 33.8688 43.776 33.9005 43.4288 33.8388C43.0815 33.777 42.7626 33.6246 42.5122 33.4008C42.2619 33.177 42.0914 32.8919 42.0223 32.5814C41.9532 32.271 41.9887 31.9492 42.1242 31.6568C42.2597 31.3644 42.4891 31.1145 42.7835 30.9386C43.0779 30.7628 43.424 30.6689 43.778 30.6689C44.2528 30.6689 44.7081 30.8375 45.0438 31.1377C45.3795 31.4378 45.5681 31.8448 45.5681 32.2692Z" fill="#263238"/>
<path d="M51.3485 33.8695C52.3371 33.8695 53.1386 33.153 53.1386 32.2692C53.1386 31.3854 52.3371 30.6689 51.3485 30.6689C50.3598 30.6689 49.5583 31.3854 49.5583 32.2692C49.5583 33.153 50.3598 33.8695 51.3485 33.8695Z" fill="#263238"/>
<path d="M177.831 39.8594V107.588C177.831 109.835 176.833 111.989 175.056 113.577C173.28 115.166 170.87 116.058 168.357 116.058H32.1628C29.9697 116.058 27.8447 115.377 26.1502 114.133C24.4557 112.888 23.2966 111.157 22.8706 109.233V109.209C22.7548 108.672 22.6968 108.127 22.6975 107.58V39.8594H177.831Z" stroke="#263238" stroke-width="1.10311" stroke-miterlimit="10"/>
<path d="M177.685 50.3331C177.021 49.9997 176.315 49.7386 175.581 49.5554L174.729 46.1553H171.113L170.27 49.5554C169.532 49.7353 168.822 49.9965 168.156 50.3331L164.891 48.4641L162.335 50.7403L164.389 53.6599C164.013 54.2552 163.721 54.8898 163.519 55.5493L159.716 56.3026V59.5357L163.519 60.2972C163.719 60.9599 164.011 61.5975 164.389 62.1947L162.299 65.1347L164.859 67.4191L168.143 65.55C168.807 65.8872 169.515 66.1498 170.252 66.3318L171.099 69.7278H174.702L175.549 66.3318C176.283 66.1479 176.99 65.8854 177.654 65.55L177.822 65.6477V50.2517L177.685 50.3331ZM172.93 62.1418C172.006 62.1418 171.102 61.8967 170.333 61.4374C169.565 60.9782 168.966 60.3254 168.612 59.5618C168.258 58.7982 168.166 57.9579 168.347 57.1474C168.527 56.3369 168.973 55.5925 169.627 55.0083C170.281 54.4242 171.114 54.0266 172.021 53.8659C172.928 53.7052 173.868 53.7885 174.722 54.1053C175.576 54.4221 176.305 54.9583 176.818 55.6458C177.331 56.3334 177.604 57.1416 177.604 57.968C177.604 58.5165 177.483 59.0595 177.248 59.5662C177.013 60.0728 176.668 60.5331 176.234 60.9208C175.8 61.3084 175.285 61.6157 174.718 61.8252C174.151 62.0348 173.544 62.1423 172.93 62.1418Z" fill="#263238"/>
<path d="M112.504 53.6104V46.7939L104.487 45.2018C104.054 43.817 103.443 42.4819 102.665 41.2235L103.635 39.8594H65.7831L66.7169 41.1868C65.9294 42.4397 65.3175 43.7745 64.8949 45.1611L56.8735 46.7573V53.59L64.8949 55.1903C65.3175 56.5872 65.9293 57.9328 66.7169 59.1971L62.3122 65.3906L67.7099 70.2118L74.6334 66.2701C76.038 66.9764 77.532 67.5301 79.0837 67.9193L80.8692 75.0655H88.476L90.2707 67.903C91.8173 67.5119 93.3065 66.9584 94.7073 66.2538L101.635 70.1955L107.029 65.3743L102.651 59.1808C103.427 57.9244 104.038 56.5922 104.473 55.2107L112.504 53.6104ZM84.7182 59.0098C82.7696 59.0098 80.8647 58.4932 79.2445 57.5254C77.6242 56.5577 76.3614 55.1821 75.6157 53.5727C74.87 51.9633 74.6749 50.1924 75.055 48.4839C75.4352 46.7753 76.3736 45.206 77.7514 43.9742C79.1293 42.7424 80.8849 41.9036 82.7961 41.5637C84.7073 41.2239 86.6883 41.3983 88.4886 42.0649C90.2888 42.7316 91.8276 43.8605 92.9102 45.3089C93.9928 46.7573 94.5706 48.4602 94.5706 50.2022C94.5712 51.3589 94.3168 52.5045 93.8219 53.5733C93.327 54.6422 92.6012 55.6133 91.6862 56.4313C90.7712 57.2493 89.6849 57.898 88.4893 58.3405C87.2936 58.7829 86.0122 59.0103 84.7182 59.0098Z" fill="#263238"/>
<path d="M61.9114 100.418L62.2348 95.0065L55.9626 93.4266C55.6714 92.3145 55.2405 91.2353 54.6781 90.2097L58.4678 85.4537L54.4048 81.4265L48.7293 84.2769C47.6444 83.6667 46.4843 83.1707 45.272 82.7988L44.1879 77.0492L38.1389 76.8008L36.3898 82.4242C35.1436 82.674 33.9354 83.0568 32.7914 83.5643L27.4757 80.1805L22.9617 83.8086L26.1775 88.8864C25.4881 89.8519 24.9314 90.8882 24.5195 91.9729L22.6975 92.2417V99.5712L24.0276 99.9051C24.3035 101.021 24.7302 102.102 25.2984 103.126L22.6838 106.404L22.8569 109.21V109.234L25.558 111.909L31.2427 109.038C32.3256 109.661 33.4897 110.163 34.709 110.533L35.7749 116.054L35.825 116.287L41.874 116.572L42.0334 116.054L43.6231 110.952C44.875 110.702 46.089 110.319 47.2398 109.812L52.5464 113.192L57.0558 109.568L53.8673 104.486C54.5503 103.522 55.0994 102.487 55.5025 101.404L61.9114 100.418ZM45.846 91.9688C44.8098 90.9385 43.4551 90.2061 41.9532 89.8642C40.4513 89.5223 38.8697 89.5863 37.4085 90.0481C35.9473 90.5099 34.6721 91.3487 33.7443 92.4585C32.8165 93.5682 32.2777 94.8991 32.1961 96.2826C32.1145 97.6662 32.4938 99.0403 33.2859 100.231C34.0781 101.422 35.2475 102.376 36.6463 102.973C38.0451 103.569 39.6104 103.781 41.1442 103.583C42.6779 103.384 44.1113 102.783 45.2629 101.856C46.8005 100.614 47.7252 98.8778 47.8344 97.028C47.9437 95.1781 47.2287 93.3648 45.846 91.9851V91.9688Z" fill="#263238"/>
<path d="M110.294 92.3516C110.529 91.5136 110.652 90.654 110.663 89.7903L115.013 87.7544L113.811 83.8086L108.901 84.0122C108.403 83.2748 107.812 82.5915 107.138 81.9763L108.591 77.7781L104.628 75.7421L101.312 78.9752C100.376 78.7733 99.4185 78.664 98.456 78.6495L96.1785 74.7607L91.7693 75.8317L92.0016 80.2253C91.1766 80.6698 90.4123 81.1986 89.7241 81.8012L85.0234 80.5022L82.7459 84.0407L86.3899 87.001C86.1542 87.8358 86.0334 88.6932 86.03 89.5542L81.6709 91.5902L82.8734 95.5318L87.7928 95.3241C88.2804 96.0653 88.8695 96.7493 89.5465 97.3601L88.0843 101.538L92.0517 103.574L95.3495 100.365C96.2864 100.576 97.2485 100.684 98.2146 100.687L100.492 104.58L104.901 103.509L104.705 99.7544L104.674 99.1111C105.51 98.6708 106.284 98.1417 106.978 97.5352L111.675 98.8382L113.615 95.8087L113.943 95.2956L110.294 92.3516ZM99.8772 94.7459C98.7465 95.0247 97.5486 94.997 96.4355 94.6663C95.3224 94.3356 94.3443 93.7169 93.6251 92.8886C92.9059 92.0603 92.4781 91.0597 92.396 90.0137C92.3138 88.9677 92.581 87.9235 93.1636 87.0134C93.7462 86.1034 94.6181 85.3685 95.6685 84.902C96.719 84.4356 97.9008 84.2585 99.064 84.3932C100.227 84.528 101.319 84.9686 102.202 85.659C103.085 86.3495 103.718 87.2588 104.022 88.2715C104.427 89.6213 104.219 91.0594 103.442 92.2723C102.666 93.4852 101.384 94.3744 99.8772 94.7459Z" fill="#263238"/>
<path d="M160.727 99.2901L161.729 93.8744L155.598 91.6715C155.459 90.5173 155.164 89.3824 154.719 88.2918L159.133 83.8981L155.562 79.419L149.477 81.7278C148.466 81.0038 147.362 80.3913 146.188 79.9035L145.833 74.0033L139.774 73.1074L137.292 78.5639C136.006 78.6989 134.743 78.9653 133.525 79.3579L128.596 75.4122L123.609 78.6046L126.196 84.0406C125.484 84.8352 124.866 85.6935 124.351 86.6019C124.283 86.7281 124.21 86.8544 124.146 86.9806L117.551 87.3063L116.544 92.7139L117.537 93.0722L122.675 94.925C122.815 96.0737 123.11 97.2031 123.554 98.2884L119.131 102.711L122.707 107.19L128.788 104.869C129.795 105.599 130.898 106.217 132.072 106.709L132.414 112.581L138.467 113.477L140.945 108.061C142.233 107.935 143.5 107.67 144.717 107.271L149.636 111.217L154.646 108.02L152.059 102.58C152.883 101.676 153.579 100.685 154.132 99.6281L160.727 99.2901ZM143.737 99.0458C142.463 99.8633 140.946 100.324 139.378 100.371C137.81 100.418 136.262 100.048 134.93 99.3078C133.597 98.568 132.54 97.4915 131.892 96.2145C131.244 94.9375 131.035 93.5174 131.289 92.1338C131.544 90.7502 132.252 89.4653 133.324 88.4415C134.396 87.4177 135.783 86.701 137.311 86.3822C138.838 86.0633 140.437 86.1566 141.906 86.6501C143.374 87.1437 144.645 88.0154 145.559 89.155C146.783 90.6837 147.278 92.5845 146.935 94.4394C146.592 96.2943 145.438 97.9512 143.728 99.0458H143.737Z" fill="#263238"/>
<path d="M78.6282 59.1973H30.9921C27.6941 59.1973 25.0205 61.5873 25.0205 64.5356V123.494C25.0205 126.442 27.6941 128.832 30.9921 128.832H78.6282C81.9262 128.832 84.5998 126.442 84.5998 123.494V64.5356C84.5998 61.5873 81.9262 59.1973 78.6282 59.1973Z" fill="#2893A9" stroke="#263238" stroke-width="1.10311" stroke-miterlimit="10"/>
<path opacity="0.2" d="M78.6282 59.1973H30.9921C27.6941 59.1973 25.0205 61.5873 25.0205 64.5356V123.494C25.0205 126.442 27.6941 128.832 30.9921 128.832H78.6282C81.9262 128.832 84.5998 126.442 84.5998 123.494V64.5356C84.5998 61.5873 81.9262 59.1973 78.6282 59.1973Z" fill="black"/>
<path d="M90.1433 69.7963V128.754C90.1439 129.456 89.9899 130.15 89.6901 130.798C89.3902 131.447 88.9505 132.036 88.3959 132.532C87.8413 133.028 87.1828 133.421 86.458 133.69C85.7332 133.958 84.9563 134.097 84.1717 134.097H36.5356C35.7514 134.096 34.975 133.958 34.2508 133.689C33.5265 133.42 32.8685 133.026 32.3144 132.53C31.7603 132.034 31.321 131.445 31.0214 130.797C30.7219 130.15 30.568 129.455 30.5686 128.754V69.7963C30.5686 68.3812 31.1971 67.024 32.316 66.023C33.4349 65.022 34.9527 64.4591 36.5356 64.458H84.1717C85.7555 64.458 87.2744 65.0204 88.3943 66.0216C89.5142 67.0227 90.1433 68.3805 90.1433 69.7963Z" fill="white" stroke="#263238" stroke-width="1.10311" stroke-linecap="round" stroke-linejoin="round"/>
<path d="M90.1433 69.7963V72.9521H30.5686V69.7963C30.5686 68.3812 31.1971 67.024 32.316 66.023C33.4349 65.022 34.9527 64.4591 36.5356 64.458H84.1717C85.7555 64.458 87.2744 65.0204 88.3943 66.0216C89.5142 67.0227 90.1433 68.3805 90.1433 69.7963Z" fill="#2893A9" stroke="#263238" stroke-width="1.10311" stroke-miterlimit="10"/>
<path d="M50.8291 76.6084H36.1711V78.8073H50.8291V76.6084Z" fill="#2893A9"/>
<path d="M50.8291 96.3135H36.1711V98.5123H50.8291V96.3135Z" fill="#2893A9"/>
<path d="M50.8291 114.181H36.1711V116.38H50.8291V114.181Z" fill="#2893A9"/>
<path d="M77.7992 82.0527H36.1711V83.6652H77.7992V82.0527Z" fill="#263238"/>
<path d="M70.2926 85.1357H36.1711V86.7075H70.2926V85.1357Z" fill="#263238"/>
<path d="M74.761 88.1689H36.1711V89.7407H74.761V88.1689Z" fill="#263238"/>
<path d="M74.761 91.1982H36.1711V92.77H74.761V91.1982Z" fill="#263238"/>
<path d="M77.7992 99.9209H36.1711V101.533H77.7992V99.9209Z" fill="#263238"/>
<path d="M70.2926 103.003H36.1711V104.575H70.2926V103.003Z" fill="#263238"/>
<path d="M74.761 106.037H36.1711V107.609H74.761V106.037Z" fill="#263238"/>
<path d="M77.7992 119.539H36.1711V121.152H77.7992V119.539Z" fill="#263238"/>
<path d="M70.2926 122.626H36.1711V124.198H70.2926V122.626Z" fill="#263238"/>
<path d="M74.761 125.66H36.1711V127.232H74.761V125.66Z" fill="#263238"/>
<path d="M157.288 23.5756V47.4047C157.288 48.2408 157.104 49.0688 156.746 49.8412C156.388 50.6136 155.863 51.3154 155.201 51.9065C154.54 52.4975 153.754 52.9663 152.89 53.2859C152.026 53.6055 151.1 53.7697 150.164 53.7692H88.7721C87.8368 53.7697 86.9105 53.6055 86.0462 53.2859C85.182 52.9663 84.3966 52.4975 83.735 51.9065C83.0734 51.3154 82.5486 50.6136 82.1905 49.8412C81.8324 49.0688 81.6481 48.2408 81.6481 47.4047V23.5756C81.6494 21.8869 82.4003 20.2676 83.736 19.0735C85.0718 17.8794 86.8831 17.2081 88.7721 17.207H150.164C152.054 17.207 153.866 17.878 155.202 19.0723C156.538 20.2667 157.288 21.8865 157.288 23.5756Z" fill="white" stroke="#222221" stroke-width="1.10311" stroke-miterlimit="10"/>
<path d="M157.288 23.5756V24.1212H81.6481V23.5756C81.6494 21.8869 82.4003 20.2676 83.736 19.0735C85.0718 17.8794 86.8831 17.2081 88.7721 17.207H150.164C152.054 17.207 153.866 17.878 155.202 19.0723C156.538 20.2667 157.288 21.8865 157.288 23.5756Z" fill="#2893A9" stroke="#263238" stroke-width="1.10311" stroke-miterlimit="10"/>
<path d="M92.7624 21.8042C92.6096 21.9411 92.4148 22.0344 92.2027 22.0723C91.9906 22.1102 91.7706 22.091 91.5707 22.0171C91.3708 21.9432 91.1999 21.8179 91.0797 21.6572C90.9594 21.4964 90.8953 21.3074 90.8953 21.114C90.8953 20.9206 90.9594 20.7316 91.0797 20.5708C91.1999 20.41 91.3708 20.2848 91.5707 20.2109C91.7706 20.137 91.9906 20.1178 92.2027 20.1557C92.4148 20.1936 92.6096 20.2869 92.7624 20.4238C92.9657 20.6075 93.0798 20.8555 93.0798 21.114C93.0798 21.3724 92.9657 21.6205 92.7624 21.8042Z" fill="#263238"/>
<path d="M97.8275 21.8042C97.6747 21.9411 97.4799 22.0344 97.2678 22.0723C97.0556 22.1102 96.8357 22.091 96.6358 22.0171C96.4359 21.9432 96.265 21.8179 96.1447 21.6572C96.0245 21.4964 95.9603 21.3074 95.9603 21.114C95.9603 20.9206 96.0245 20.7316 96.1447 20.5708C96.265 20.41 96.4359 20.2848 96.6358 20.2109C96.8357 20.137 97.0556 20.1178 97.2678 20.1557C97.4799 20.1936 97.6747 20.2869 97.8275 20.4238C98.0308 20.6075 98.1449 20.8555 98.1449 21.114C98.1449 21.3724 98.0308 21.6205 97.8275 21.8042Z" fill="#263238"/>
<path d="M102.893 21.8042C102.74 21.9411 102.545 22.0344 102.333 22.0723C102.121 22.1102 101.901 22.091 101.701 22.0171C101.501 21.9432 101.33 21.8179 101.21 21.6572C101.09 21.4964 101.026 21.3074 101.026 21.114C101.026 20.9206 101.09 20.7316 101.21 20.5708C101.33 20.41 101.501 20.2848 101.701 20.2109C101.901 20.137 102.121 20.1178 102.333 20.1557C102.545 20.1936 102.74 20.2869 102.893 20.4238C103.096 20.6075 103.21 20.8555 103.21 21.114C103.21 21.3724 103.096 21.6205 102.893 21.8042Z" fill="#263238"/>
<path d="M111.196 28.5029H86.4719V47.6086H111.196V28.5029Z" stroke="#263238" stroke-width="1.10311" stroke-linecap="round" stroke-linejoin="round" stroke-dasharray="4.41 4.41"/>
<path d="M143.468 28.5029H115.013V29.8467H143.468V28.5029Z" fill="#263238"/>
<path d="M136.841 31.2842H115.013V32.6239H136.841V31.2842Z" fill="#263238"/>
<path d="M147.513 34.0527H115.013V35.4087H147.513V34.0527Z" fill="#263238"/>
<path d="M142.69 36.752H115.013V38.1079H142.69V36.752Z" fill="#263238"/>
<path d="M159.356 82.7168H145.441C143.798 82.7168 142.466 83.9073 142.466 85.3758V92.6768C142.466 94.1453 143.798 95.3358 145.441 95.3358H159.356C160.999 95.3358 162.331 94.1453 162.331 92.6768V85.3758C162.331 83.9073 160.999 82.7168 159.356 82.7168Z" fill="white" stroke="#263238" stroke-width="1.10311" stroke-linecap="round" stroke-linejoin="round"/>
<path d="M148.875 86.5117L145.054 88.6536L148.602 91.4632" stroke="#263238" stroke-width="1.10311" stroke-linecap="round" stroke-linejoin="round"/>
<path d="M155.835 91.6667L159.27 89.0525L155.307 86.7314" stroke="#263238" stroke-width="1.10311" stroke-linecap="round" stroke-linejoin="round"/>
<path d="M150.734 93.2798L153.553 85.3721" stroke="#263238" stroke-width="1.10311" stroke-linecap="round" stroke-linejoin="round"/>
<path d="M121.345 162.096C121.345 162.096 108.135 165.48 106.291 166.066C104.614 166.596 100.069 168.021 96.6569 167.577C96.3275 167.535 96.0018 167.472 95.6821 167.39C92.2249 166.469 90.6716 165.61 90.2161 163.668C89.7606 161.726 91.4824 160.292 93.1404 159.376C94.7984 158.46 103.79 157.503 103.79 157.503L105.963 158.073L121.345 162.096Z" fill="#2893A9"/>
<path d="M96.6569 167.577C96.3275 167.535 96.0018 167.472 95.6821 167.39C92.2249 166.469 90.6716 165.61 90.2161 163.668C89.7606 161.726 91.4824 160.292 93.1404 159.376C94.7984 158.46 103.79 157.503 103.79 157.503L105.963 158.073C103.995 158.887 96.6705 159.331 95.0717 160.154C93.4729 160.976 92.7031 162.524 93.646 164.633C94.1516 165.732 95.4999 166.811 96.6569 167.577Z" fill="white"/>
<path d="M119.359 162.577C119.359 162.577 109.438 164.873 105.503 166.343C101.567 167.813 94.065 168.456 91.3821 165.427C88.6992 162.397 91.0724 159.783 93.7461 159.201C96.4199 158.619 101.827 157.702 104.778 158.073" stroke="#263238" stroke-width="1.10311" stroke-linecap="round" stroke-linejoin="round"/>
<path d="M96.8526 167.418C96.8526 167.418 91.8057 164.943 93.482 161.473C94.7209 158.916 101.453 159.47 104.787 158.073" stroke="#263238" stroke-width="1.10311" stroke-linecap="round" stroke-linejoin="round"/>
<path d="M161.579 168.126C161.442 169.348 160.964 170.492 159.598 171.213C158.687 171.694 157.393 171.979 155.539 171.962C150.907 171.909 142.198 168.949 142.198 168.949L134.044 164.918L138.285 158.92L139.446 157.291L142.444 157.894C142.444 157.894 144.926 159.152 147.422 160.154C149.918 161.155 155.981 161.375 158.117 162.91C160.254 164.445 161.811 166.115 161.579 168.126Z" fill="#2893A9"/>
<path d="M161.579 168.126C161.442 169.348 160.964 170.492 159.598 171.213C159.991 170.012 159.911 168.727 159.37 167.573C158.459 165.744 155.494 164.132 151.595 163.863C147.696 163.594 144.712 161.966 143.15 161.237C141.929 160.671 139.355 159.433 138.285 158.92L139.446 157.291L142.444 157.894C142.444 157.894 144.926 159.152 147.422 160.154C149.918 161.155 155.981 161.375 158.117 162.91C160.254 164.445 161.811 166.115 161.579 168.126Z" fill="white"/>
<path d="M135.852 166.05C141.721 169.1 148.208 171.081 154.938 171.877C156.423 172.036 158.149 172.061 159.142 171.063C159.406 170.775 159.603 170.442 159.72 170.085C159.838 169.727 159.873 169.352 159.825 168.982C159.648 167.109 157.885 165.627 155.954 164.882C154.022 164.137 151.895 163.966 149.841 163.554C147.798 163.143 145.823 162.497 143.965 161.632C142.489 160.944 141.063 160.109 139.437 159.8C137.811 159.49 135.875 159.865 135.005 161.136" stroke="#263238" stroke-width="1.10311" stroke-linecap="round" stroke-linejoin="round"/>
<path d="M158.596 171.572C159.359 171.245 160.026 170.764 160.544 170.166C161.062 169.567 161.416 168.869 161.579 168.127C161.875 166.364 160.75 164.588 159.169 163.505C157.589 162.422 155.608 161.909 153.653 161.547C151.699 161.184 149.7 160.94 147.828 160.276C144.972 159.275 142.152 157.304 139.173 158.008" stroke="#263238" stroke-width="1.10311" stroke-linecap="round" stroke-linejoin="round"/>
<path d="M145.054 102.967L131.257 98.2761L131.084 98.215C131.084 98.215 131.134 97.8893 131.175 97.4006C131.261 96.4152 131.307 94.8109 130.787 94.2693C130.018 93.4549 127.84 94.139 125.713 93.2676C123.586 92.3962 119.655 93.9557 119.655 93.9557C119.655 93.9557 116.813 93.4875 115.556 95.3199C114.918 96.798 115.137 98.9846 115.137 98.9846L114.877 99.066C113.233 99.6158 104.287 102.625 102.396 103.834C100.305 105.158 97.9915 118.746 97.2491 122.736C96.5066 126.727 95.1857 130.322 95.8552 131.695C96.5248 133.067 106.136 139.684 111.666 141.39C117.195 143.096 136.805 142.612 136.805 142.612C136.805 142.612 137.123 142.534 137.693 142.371C141.009 141.419 152.774 137.485 159.019 128.25C159.028 128.266 152.979 110.541 145.054 102.967ZM107.776 125.823C106.76 126.466 107.32 128.958 107.32 128.958L105.594 127.598L109.93 118.066L111.779 125.395C111.779 125.395 108.791 125.184 107.776 125.823ZM142.466 131.878C141.988 132.098 143.833 127.517 142.958 126.478C142.084 125.44 139.446 125.538 139.446 125.538L139.67 124.288L141.232 117.121L141.751 116.571C141.751 116.571 147.117 124.793 148.078 127.692C148.078 127.7 142.23 131.878 142.466 131.878Z" fill="#2893A9"/>
<path d="M119.004 73.2383L111.88 79.9977C111.88 79.9977 110.9 80.7755 111.287 82.7341C111.675 84.6927 112.586 86.3989 113.273 86.5129C113.818 86.5981 114.37 86.6417 114.922 86.6432C114.922 86.6432 116.448 89.5994 117.532 90.7599C117.532 90.7599 117.906 95.3246 117.705 96.591C117.705 96.591 120.265 98.5903 122.675 98.8428C125.085 99.0952 128.806 95.7969 128.806 95.7969L129.717 91.7576C129.717 91.7576 131.903 88.7932 132.049 88.0032C132.195 87.2133 133.197 87.4168 133.689 87.0259C134.181 86.635 135.315 84.8963 135.511 83.2512C135.707 81.6062 135.711 79.7168 133.575 80.2706C131.721 79.8267 132.883 76.3248 132.883 76.3248L129.626 73.7595L119.004 73.2383Z" fill="white"/>
<path opacity="0.5" d="M131.257 98.2769C131.149 98.5285 131.026 98.7746 130.888 99.0139C129.712 100.993 124.593 104.768 124.593 104.768L123.044 100.512L122.197 104.768C120.489 104.1 115.278 100.064 115.278 100.064C115.278 100.064 115.1 99.6858 114.886 99.0953L115.146 99.0139C115.146 99.0139 114.927 96.811 115.565 95.3491C116.813 93.5168 119.664 93.985 119.664 93.985C119.664 93.985 123.595 92.4255 125.722 93.2969C127.849 94.1683 130.027 93.4923 130.797 94.2986C131.566 95.1048 131.093 98.2321 131.093 98.2321L131.257 98.2769Z" fill="white"/>
<path opacity="0.2" d="M145.054 102.968L131.257 98.2768L131.083 98.2158C131.083 98.2158 131.134 97.89 131.175 97.4014L130.888 99.0016L128.847 101.477C131.028 102.195 133.158 103.033 135.224 103.986C136.213 104.459 137.02 105.188 137.54 106.077C138.06 106.965 138.268 107.974 138.139 108.97L135.597 128.413L134.554 139.452L137.702 142.372C141.018 141.419 152.783 137.486 159.028 128.251C159.028 128.267 152.979 110.542 145.054 102.968ZM142.466 131.879C141.988 132.099 143.833 127.518 142.958 126.479C142.084 125.441 139.446 125.539 139.446 125.539L139.67 124.289L141.232 117.122L141.751 116.572C141.751 116.572 147.117 124.793 148.078 127.693C148.078 127.701 142.229 131.879 142.466 131.879Z" fill="black"/>
<path opacity="0.2" d="M112.695 126.479L110.549 120.07C110.549 120.07 106.701 108.338 104.063 105.447L104.756 113.697C104.756 113.697 102.478 123.551 100.396 126.479C98.3148 129.407 97.8502 130.144 100.396 130.144C102.943 130.144 109.142 134.558 109.142 134.558L108.664 130.893L112.695 126.479ZM107.288 128.959L105.562 127.599L109.898 118.066L111.747 125.396C111.747 125.396 108.778 125.196 107.762 125.836C106.746 126.475 107.288 128.959 107.288 128.959Z" fill="black"/>
<path d="M117.532 90.7598C117.532 90.7598 117.924 94.2169 117.532 95.7968" stroke="#263238" stroke-width="1.10311" stroke-linecap="round" stroke-linejoin="round"/>
<path d="M129.202 95.3326C129.207 94.221 129.35 93.1133 129.63 92.0303" stroke="#263238" stroke-width="1.10311" stroke-linecap="round" stroke-linejoin="round"/>
<path d="M130.236 75.8154C130.236 75.8154 132.578 78.4418 132.455 80.429C132.332 82.4161 132.158 84.7697 132.218 87.0744C132.277 89.3791 128.077 94.2085 125.918 94.636C123.759 95.0636 121.901 95.1735 120.52 93.9397C119.14 92.7059 117.76 90.9916 115.965 88.7928C114.171 86.5939 114.599 81.7686 114.599 81.7686" stroke="#263238" stroke-width="1.10311" stroke-linecap="round" stroke-linejoin="round"/>
<path d="M124.597 83.6055C124.454 84.327 124.393 85.0596 124.415 85.7921C124.368 86.4095 124.583 87.02 125.016 87.5023C125.276 87.7385 125.649 87.9299 125.699 88.2556C125.698 88.4023 125.653 88.5459 125.568 88.6713C125.483 88.7967 125.361 88.8993 125.217 88.9682C124.924 89.1 124.643 89.2496 124.374 89.4162" stroke="#263238" stroke-width="1.10311" stroke-linecap="round" stroke-linejoin="round"/>
<path d="M120.894 89.668C120.894 89.668 121.163 91.2275 123.499 91.5533" stroke="#263238" stroke-width="1.10311" stroke-linecap="round" stroke-linejoin="round"/>
<path d="M121.135 84.7939C121.135 85.2459 120.917 85.6083 120.648 85.6083C120.379 85.6083 120.161 85.2459 120.161 84.7939C120.161 84.3419 120.379 83.9795 120.648 83.9795C120.917 83.9795 121.135 84.346 121.135 84.7939Z" fill="#263238"/>
<path d="M128.109 84.9892C128.109 85.4412 127.89 85.8036 127.622 85.8036C127.353 85.8036 127.134 85.4371 127.134 84.9892C127.134 84.5413 127.353 84.1748 127.622 84.1748C127.89 84.1748 128.109 84.5372 128.109 84.9892Z" fill="#263238"/>
<path d="M126.702 83.0145C126.702 83.0145 128.979 80.9786 130.888 83.2507" stroke="#263238" stroke-width="2.20621" stroke-linecap="round" stroke-linejoin="round"/>
<path d="M121.905 83.0557C121.905 83.0557 120.466 81.6142 118.197 83.0557" stroke="#263238" stroke-width="2.20621" stroke-linecap="round" stroke-linejoin="round"/>
<path d="M117.705 92.6811C117.705 92.6811 119.095 96.1015 122.197 97.0747C125.299 98.0479 129.416 93.0028 129.416 93.0028L129.202 92.3472C129.202 92.3472 126.501 95.4826 123.499 94.9491C120.498 94.4157 117.532 90.7754 117.532 90.7754L117.705 92.6811Z" fill="#263238"/>
<path d="M114.922 86.5123C114.922 86.5123 113.073 87.0945 112.581 85.8078C112.089 84.5211 110.404 81.1291 111.88 79.9971C113.355 78.8651 114.54 81.4915 114.54 81.4915" stroke="#263238" stroke-width="1.10311" stroke-linecap="round" stroke-linejoin="round"/>
<path d="M132.213 87.2128C132.213 87.2128 133.93 87.5223 134.422 86.2355C134.914 84.9488 136.6 81.5569 135.124 80.4249C133.648 79.2929 132.464 81.9193 132.464 81.9193" stroke="#263238" stroke-width="1.10311" stroke-linecap="round" stroke-linejoin="round"/>
<path d="M114.54 84.7942C115.182 84.7037 115.762 84.3979 116.161 83.9391C116.405 83.5364 116.56 83.0953 116.617 82.6402C116.786 81.7742 116.871 80.8969 116.872 80.0178C116.852 79.6744 116.887 79.3302 116.977 78.9958C117.113 78.6592 117.324 78.3505 117.596 78.0877C118.238 77.4118 119.017 76.8417 119.632 76.1413C119.962 75.8108 120.213 75.4237 120.369 75.0036C120.526 74.5835 120.585 74.1393 120.543 73.6981C121.952 74.7368 123.599 75.4869 125.367 75.8956C127.136 76.3043 128.982 76.3618 130.778 76.0639C134.035 75.4939 137.155 72.9407 136.777 69.732C136.706 69.1941 136.448 68.6896 136.039 68.2894C135.631 67.8892 135.092 67.6134 134.5 67.5006C132.892 67.1423 131.448 67.9078 129.99 68.4005C127.335 69.2963 124.734 67.7571 122.051 67.5006C119.773 67.2767 116.936 67.5332 115.742 69.5732C115.742 69.5732 111.643 70.0049 109.821 73.0344C107.999 76.0639 111.447 80.254 111.447 80.254C111.447 80.254 112.813 78.7555 114.603 81.785L114.54 84.7942Z" fill="#263238"/>
<path d="M130.519 75.0418C130.519 75.0418 129.453 80.0096 132.236 82.4161C132.236 82.4161 132.846 80.9217 133.461 80.5552C133.905 79.6736 134.092 78.7063 134.007 77.7427C133.922 76.7791 133.567 75.8502 132.974 75.0418C130.915 72.1507 130.519 75.0418 130.519 75.0418Z" fill="#263238"/>
<path opacity="0.2" d="M135.593 69.3896C135.348 70.0675 134.934 70.6865 134.382 71.1995C133.829 71.7125 133.153 72.106 132.404 72.35C128.542 73.7589 124.793 72.1993 120.921 71.8939C117.765 71.6414 114.28 74.1905 114.057 77.0897" stroke="white" stroke-width="1.10311" stroke-linecap="round" stroke-linejoin="round"/>
<path opacity="0.2" d="M111.675 76.3242C111.722 75.1801 112.132 74.0717 112.858 73.1285C113.584 72.1853 114.596 71.4464 115.774 70.998" stroke="white" stroke-width="1.10311" stroke-linecap="round" stroke-linejoin="round"/>
<path d="M116.64 95.332C118.338 96.9145 120.388 98.1627 122.657 98.9968C122.657 98.9968 127.28 97.7955 129.63 94.9248" stroke="#263238" stroke-width="1.10311" stroke-linecap="round" stroke-linejoin="round"/>
<path d="M121.364 88.1101C123.418 87.2682 124.319 85.0976 123.377 83.262C122.435 81.4264 120.007 80.6208 117.954 81.4628C115.9 82.3048 114.999 84.4754 115.941 86.311C116.883 88.1466 119.311 88.9521 121.364 88.1101Z" stroke="#263238" stroke-width="1.10311" stroke-linecap="round" stroke-linejoin="round"/>
<path d="M129.291 88.4313C131.533 88.1851 133.127 86.3607 132.852 84.3563C132.577 82.3518 130.536 80.9264 128.294 81.1725C126.051 81.4186 124.457 83.2431 124.732 85.2475C125.007 87.252 127.048 88.6774 129.291 88.4313Z" stroke="#263238" stroke-width="1.10311" stroke-linecap="round" stroke-linejoin="round"/>
<path d="M117.532 93.9688C117.118 94.066 116.73 94.2369 116.391 94.4713C116.052 94.7057 115.77 94.9987 115.56 95.3329C114.836 96.473 115.273 100.06 115.273 100.06C115.273 100.06 119.013 103.367 122.197 104.764L123.135 100.044L124.593 104.764C124.593 104.764 129.521 101.648 130.888 99.0139C130.888 99.0139 131.343 95.9396 130.888 94.9419C130.784 94.6649 130.587 94.4233 130.324 94.2504C130.06 94.0776 129.743 93.982 129.416 93.9769" stroke="#263238" stroke-width="1.10311" stroke-linecap="round" stroke-linejoin="round"/>
<path d="M111.675 125.543C111.675 125.543 110.212 116.788 108.267 113.217" stroke="#263238" stroke-width="1.10311" stroke-linecap="round" stroke-linejoin="round"/>
<path d="M104.063 105.447C105.196 106.886 106.207 108.398 107.088 109.971" stroke="#263238" stroke-width="1.10311" stroke-linecap="round" stroke-linejoin="round"/>
<path d="M142.466 111.982C142.859 110.519 143.397 109.089 144.074 107.711" stroke="#263238" stroke-width="1.10311" stroke-linecap="round" stroke-linejoin="round"/>
<path d="M139.446 125.542C139.446 125.542 140.499 119.54 141.756 114.597" stroke="#263238" stroke-width="1.10311" stroke-linecap="round" stroke-linejoin="round"/>
<path d="M141.232 117.113C142.249 115.908 143.679 115.033 145.304 114.621" stroke="#263238" stroke-width="1.10311" stroke-linecap="round" stroke-linejoin="round"/>
<path d="M131.088 98.2158C131.088 98.2158 139.574 101.249 145.054 102.972C145.054 102.972 151.795 108.636 159.024 128.267C159.024 128.267 152.401 138.227 139.802 141.419" stroke="#263238" stroke-width="1.10311" stroke-linecap="round" stroke-linejoin="round"/>
<path d="M141.988 132.232L148.078 127.7C148.078 127.7 151.298 125.513 154.646 127.008" stroke="#263238" stroke-width="1.10311" stroke-linecap="round" stroke-linejoin="round"/>
<path d="M141.756 116.572C141.756 116.572 146.789 123.222 148.078 127.701" stroke="#263238" stroke-width="1.10311" stroke-linecap="round" stroke-linejoin="round"/>
<path d="M107.356 129.211L105.575 127.7C105.575 127.7 102.934 127.293 99.9364 129.08" stroke="#263238" stroke-width="1.10311" stroke-linecap="round" stroke-linejoin="round"/>
<path d="M105.575 127.701C105.575 127.701 107.789 121.186 109.971 117.851" stroke="#263238" stroke-width="1.10311" stroke-linecap="round" stroke-linejoin="round"/>
<path d="M115.146 99.0137C115.146 99.0137 102.934 103.11 101.736 104.307C100.538 105.504 95.9872 128.409 95.8643 131.031C95.7595 133.377 105.27 138.642 109.985 140.861" stroke="#263238" stroke-width="1.10311" stroke-linecap="round" stroke-linejoin="round"/>
<path d="M124.278 106.754C124.278 106.896 124.231 107.036 124.142 107.154C124.054 107.273 123.928 107.365 123.781 107.42C123.633 107.474 123.471 107.489 123.315 107.461C123.158 107.433 123.015 107.364 122.902 107.264C122.789 107.163 122.712 107.034 122.681 106.895C122.65 106.755 122.666 106.61 122.727 106.478C122.788 106.346 122.891 106.234 123.024 106.155C123.157 106.075 123.313 106.033 123.472 106.033C123.578 106.033 123.683 106.051 123.781 106.087C123.879 106.123 123.968 106.176 124.043 106.243C124.118 106.31 124.178 106.39 124.218 106.477C124.258 106.565 124.279 106.659 124.278 106.754Z" fill="#263238"/>
<path d="M138.408 145.121H110.622C110.45 145.121 110.284 145.059 110.162 144.95C110.04 144.841 109.971 144.693 109.971 144.538C109.971 144.384 110.04 144.236 110.162 144.127C110.284 144.017 110.45 143.956 110.622 143.956H138.408C138.581 143.956 138.746 144.017 138.868 144.127C138.991 144.236 139.059 144.384 139.059 144.538C139.059 144.693 138.991 144.841 138.868 144.95C138.746 145.059 138.581 145.121 138.408 145.121Z" fill="#263238"/>
<path d="M139.383 143.174L143.104 127.538C143.162 127.295 143.158 127.044 143.093 126.803C143.029 126.562 142.904 126.337 142.73 126.145C142.555 125.952 142.334 125.797 142.084 125.691C141.833 125.585 141.559 125.53 141.282 125.53H108.805C108.53 125.53 108.259 125.585 108.01 125.69C107.762 125.795 107.542 125.948 107.368 126.138C107.194 126.329 107.069 126.551 107.002 126.789C106.936 127.028 106.929 127.276 106.983 127.517L110.322 142.633C110.404 143.004 110.625 143.339 110.949 143.582C111.273 143.826 111.68 143.964 112.103 143.972L137.515 144.493C137.95 144.502 138.374 144.375 138.715 144.134C139.055 143.893 139.292 143.554 139.383 143.174Z" fill="white" stroke="#263238" stroke-width="1.10311" stroke-linecap="round" stroke-linejoin="round"/>
<path d="M127.531 134.553C127.53 135.012 127.377 135.459 127.091 135.84C126.806 136.22 126.401 136.516 125.927 136.691C125.454 136.866 124.933 136.911 124.43 136.821C123.928 136.731 123.466 136.51 123.104 136.186C122.742 135.862 122.496 135.449 122.396 135C122.297 134.551 122.348 134.085 122.545 133.662C122.741 133.239 123.073 132.877 123.499 132.623C123.925 132.368 124.426 132.232 124.939 132.232C125.279 132.232 125.617 132.292 125.932 132.409C126.246 132.526 126.532 132.697 126.773 132.912C127.014 133.128 127.205 133.384 127.335 133.666C127.464 133.947 127.531 134.249 127.531 134.553Z" fill="#263238"/>
<path d="M132.628 127.024H136.486" stroke="#263238" stroke-width="1.10311" stroke-linecap="round" stroke-linejoin="round"/>
<path d="M114.203 127.024H128.847" stroke="#263238" stroke-width="1.10311" stroke-linecap="round" stroke-linejoin="round"/>
<path d="M139.446 159.775L136.486 166.722C136.486 166.722 128.933 165.02 119.263 163.248C109.147 161.396 98.5835 158.997 93.1039 150.401C92.4389 149.355 91.9925 148.117 92.3068 146.944C93.0948 143.976 97.4175 143.169 100.264 142.872C102.054 142.699 103.853 142.609 105.653 142.603C106.564 142.603 109.593 142.16 110.326 142.644C111.428 143.363 112.604 143.986 113.838 144.505C115.455 145.12 139.059 143.955 139.059 143.955C139.47 143.155 139.721 142.296 139.802 141.418C143.514 139.733 152.1 138.308 155.744 138.939C161.452 139.928 164.781 142.905 164.148 146.024C163.515 149.143 150.907 157.507 139.446 159.775Z" fill="#263238"/>
<path d="M139.446 159.775C139.446 159.775 132.263 158.073 126.396 154.531C120.53 150.988 115.947 146.875 107.771 147.726" stroke="white" stroke-width="1.10311" stroke-linecap="round" stroke-linejoin="round"/>
<path d="M125.053 153.696C128.76 152.743 131.48 150.597 134.454 148.54C137.591 146.29 140.96 144.31 144.516 142.628" stroke="white" stroke-width="1.10311" stroke-linecap="round" stroke-linejoin="round"/>
<path d="M123.745 85.3721H124.834" stroke="#263238" stroke-width="1.10311" stroke-linecap="round" stroke-linejoin="round"/>
</svg>
